<?xml version="1.0" encoding="UTF-8" standalone="no"?>
<!-- Created with Inkscape (http://www.inkscape.org/) -->

<svg
   width="275"
   height="275"
   viewBox="0 0 72.760418 72.760418"
   version="1.1"
   id="svg5"
   xml:space="preserve"
   inkscape:version="1.2.2 (b0a8486541, 2022-12-01)"
   sodipodi:docname="icon.svg"
   inkscape:export-filename="logo.png"
   inkscape:export-xdpi="300"
   inkscape:export-ydpi="300"
   xmlns:inkscape="http://www.inkscape.org/namespaces/inkscape"
   xmlns:sodipodi="http://sodipodi.sourceforge.net/DTD/sodipodi-0.dtd"
   xmlns:xlink="http://www.w3.org/1999/xlink"
   xmlns="http://www.w3.org/2000/svg"
   xmlns:svg="http://www.w3.org/2000/svg"><sodipodi:namedview
     id="namedview7"
     pagecolor="#ffffff"
     bordercolor="#000000"
     borderopacity="0.25"
     inkscape:showpageshadow="2"
     inkscape:pageopacity="0.0"
     inkscape:pagecheckerboard="0"
     inkscape:deskcolor="#d1d1d1"
     inkscape:document-units="mm"
     showgrid="false"
     inkscape:zoom="1"
     inkscape:cx="242.5"
     inkscape:cy="240"
     inkscape:window-width="1920"
     inkscape:window-height="1009"
     inkscape:window-x="1072"
     inkscape:window-y="-8"
     inkscape:window-maximized="1"
     inkscape:current-layer="layer1"
     showguides="true" /><defs
     id="defs2"><linearGradient
       inkscape:collect="always"
       id="linearGradient13369"><stop
         style="stop-color:#19aeff;stop-opacity:1;"
         offset="0"
         id="stop13367" /><stop
         style="stop-color:#005c94;stop-opacity:1;"
         offset="1"
         id="stop13365" /></linearGradient><linearGradient
       inkscape:collect="always"
       id="linearGradient13353"><stop
         style="stop-color:#005c94;stop-opacity:1;"
         offset="0"
         id="stop13351" /><stop
         style="stop-color:#19aeff;stop-opacity:1;"
         offset="1"
         id="stop13349" /></linearGradient><linearGradient
       inkscape:collect="always"
       id="linearGradient11178"><stop
         style="stop-color:#19aeff;stop-opacity:1;"
         offset="0"
         id="stop11176" /><stop
         style="stop-color:#005c94;stop-opacity:1;"
         offset="1"
         id="stop11174" /></linearGradient><inkscape:path-effect
       effect="bspline"
       id="path-effect2922"
       is_visible="true"
       lpeversion="1"
       weight="33.333333"
       steps="2"
       helper_size="0"
       apply_no_weight="true"
       apply_with_weight="true"
       only_selected="false" /><inkscape:path-effect
       effect="bspline"
       id="path-effect7791"
       is_visible="true"
       lpeversion="1"
       weight="33.333333"
       steps="2"
       helper_size="0"
       apply_no_weight="true"
       apply_with_weight="true"
       only_selected="false" /><inkscape:path-effect
       effect="bspline"
       id="path-effect7791-7"
       is_visible="true"
       lpeversion="1"
       weight="33.333333"
       steps="2"
       helper_size="0"
       apply_no_weight="true"
       apply_with_weight="true"
       only_selected="false" /><inkscape:path-effect
       effect="bspline"
       id="path-effect317"
       is_visible="true"
       lpeversion="1"
       weight="33.333333"
       steps="2"
       helper_size="0"
       apply_no_weight="true"
       apply_with_weight="true"
       only_selected="false" /><inkscape:path-effect
       effect="bspline"
       id="path-effect6151"
       is_visible="true"
       lpeversion="1"
       weight="33.333333"
       steps="2"
       helper_size="0"
       apply_no_weight="true"
       apply_with_weight="true"
       only_selected="false" /><inkscape:path-effect
       effect="bspline"
       id="path-effect8277"
       is_visible="true"
       lpeversion="1"
       weight="33.333333"
       steps="2"
       helper_size="0"
       apply_no_weight="true"
       apply_with_weight="true"
       only_selected="false" /><inkscape:path-effect
       effect="bspline"
       id="path-effect8281"
       is_visible="true"
       lpeversion="1"
       weight="33.333333"
       steps="2"
       helper_size="0"
       apply_no_weight="true"
       apply_with_weight="true"
       only_selected="false" /><inkscape:path-effect
       effect="bspline"
       id="path-effect8285"
       is_visible="true"
       lpeversion="1"
       weight="33.333333"
       steps="2"
       helper_size="0"
       apply_no_weight="true"
       apply_with_weight="true"
       only_selected="false" /><inkscape:path-effect
       effect="bspline"
       id="path-effect8289"
       is_visible="true"
       lpeversion="1"
       weight="33.333333"
       steps="2"
       helper_size="0"
       apply_no_weight="true"
       apply_with_weight="true"
       only_selected="false" /><inkscape:path-effect
       effect="bspline"
       id="path-effect6147"
       is_visible="true"
       lpeversion="1"
       weight="33.333333"
       steps="2"
       helper_size="0"
       apply_no_weight="true"
       apply_with_weight="true"
       only_selected="false" /><inkscape:path-effect
       effect="bspline"
       id="path-effect6159"
       is_visible="true"
       lpeversion="1"
       weight="33.333333"
       steps="2"
       helper_size="0"
       apply_no_weight="true"
       apply_with_weight="true"
       only_selected="false" /><inkscape:path-effect
       effect="bspline"
       id="path-effect8207"
       is_visible="true"
       lpeversion="1"
       weight="33.333333"
       steps="2"
       helper_size="0"
       apply_no_weight="true"
       apply_with_weight="true"
       only_selected="false" /><inkscape:path-effect
       effect="bspline"
       id="path-effect7791-8"
       is_visible="true"
       lpeversion="1"
       weight="33.333333"
       steps="2"
       helper_size="0"
       apply_no_weight="true"
       apply_with_weight="true"
       only_selected="false" /><linearGradient
       inkscape:collect="always"
       xlink:href="#linearGradient11178"
       id="linearGradient13337"
       x1="19.016893"
       y1="20.495253"
       x2="34.337051"
       y2="20.495253"
       gradientUnits="userSpaceOnUse" /><linearGradient
       inkscape:collect="always"
       xlink:href="#linearGradient13353"
       id="linearGradient13347"
       x1="19.324165"
       y1="25.018726"
       x2="34.644325"
       y2="25.018726"
       gradientUnits="userSpaceOnUse" /><linearGradient
       inkscape:collect="always"
       xlink:href="#linearGradient13369"
       id="linearGradient13363"
       x1="19.029551"
       y1="29.524986"
       x2="34.391991"
       y2="29.524986"
       gradientUnits="userSpaceOnUse" /><inkscape:path-effect
       effect="bspline"
       id="path-effect317-8"
       is_visible="true"
       lpeversion="1"
       weight="33.333333"
       steps="2"
       helper_size="0"
       apply_no_weight="true"
       apply_with_weight="true"
       only_selected="false" /><filter
       inkscape:collect="always"
       style="color-interpolation-filters:sRGB"
       id="filter14153"
       x="-0.0077503"
       y="-0.025676344"
       width="1.0155006"
       height="1.0513527"><feGaussianBlur
         inkscape:collect="always"
         stdDeviation="0.049638095"
         id="feGaussianBlur14155" /></filter><filter
       inkscape:collect="always"
       style="color-interpolation-filters:sRGB"
       id="filter14153-6"
       x="-0.0077030515"
       y="-0.025676266"
       width="1.0154061"
       height="1.0513525"><feGaussianBlur
         inkscape:collect="always"
         stdDeviation="0.049638095"
         id="feGaussianBlur14155-8" /></filter><inkscape:path-effect
       effect="bspline"
       id="path-effect317-8-2"
       is_visible="true"
       lpeversion="1"
       weight="33.333333"
       steps="2"
       helper_size="0"
       apply_no_weight="true"
       apply_with_weight="true"
       only_selected="false" /><filter
       inkscape:collect="always"
       style="color-interpolation-filters:sRGB"
       id="filter14153-6-0"
       x="-0.0077667954"
       y="-0.025675987"
       width="1.0155336"
       height="1.051352"><feGaussianBlur
         inkscape:collect="always"
         stdDeviation="0.049638095"
         id="feGaussianBlur14155-8-1" /></filter><inkscape:path-effect
       effect="bspline"
       id="path-effect317-8-2-9"
       is_visible="true"
       lpeversion="1"
       weight="33.333333"
       steps="2"
       helper_size="0"
       apply_no_weight="true"
       apply_with_weight="true"
       only_selected="false" /><filter
       inkscape:collect="always"
       style="color-interpolation-filters:sRGB"
       id="filter14363"
       x="-0.63865466"
       y="-0.71573172"
       width="2.2773093"
       height="2.4314634"><feGaussianBlur
         inkscape:collect="always"
         stdDeviation="0.796847"
         id="feGaussianBlur14365" /></filter><filter
       inkscape:collect="always"
       style="color-interpolation-filters:sRGB"
       id="filter14363-5"
       x="-0.6454254"
       y="-0.7233196"
       width="2.2908508"
       height="2.4466392"><feGaussianBlur
         inkscape:collect="always"
         stdDeviation="0.80529479"
         id="feGaussianBlur14365-0" /></filter><filter
       inkscape:collect="always"
       style="color-interpolation-filters:sRGB"
       id="filter14363-5-3"
       x="-0.64184978"
       y="-0.71931245"
       width="2.2836996"
       height="2.4386249"><feGaussianBlur
         inkscape:collect="always"
         stdDeviation="0.80083352"
         id="feGaussianBlur14365-0-6" /></filter><inkscape:path-effect
       effect="bspline"
       id="path-effect7791-9"
       is_visible="true"
       lpeversion="1"
       weight="33.333333"
       steps="2"
       helper_size="0"
       apply_no_weight="true"
       apply_with_weight="true"
       only_selected="false" /><inkscape:path-effect
       effect="bspline"
       id="path-effect317-8-2-9-6"
       is_visible="true"
       lpeversion="1"
       weight="33.333333"
       steps="2"
       helper_size="0"
       apply_no_weight="true"
       apply_with_weight="true"
       only_selected="false" /><inkscape:path-effect
       effect="bspline"
       id="path-effect7791-8-2"
       is_visible="true"
       lpeversion="1"
       weight="33.333333"
       steps="2"
       helper_size="0"
       apply_no_weight="true"
       apply_with_weight="true"
       only_selected="false" /><inkscape:path-effect
       effect="bspline"
       id="path-effect317-8-2-2"
       is_visible="true"
       lpeversion="1"
       weight="33.333333"
       steps="2"
       helper_size="0"
       apply_no_weight="true"
       apply_with_weight="true"
       only_selected="false" /><clipPath
       clipPathUnits="userSpaceOnUse"
       id="clipPath4061"><g
         id="g4067"
         transform="translate(4.3251315,1.3898117)"><g
           id="g4065"><path
             style="opacity:1;fill:#2d2d2d;stroke:none;stroke-width:0.0165625"
             d="m 16.531559,25.41715 c -0.870208,-0.421544 -1.369296,-0.939822 -1.534174,-1.593163 -0.0301,-0.119256 -0.03598,-0.189703 -0.03607,-0.431888 -9.6e-5,-0.25991 0.0044,-0.307416 0.04455,-0.466372 0.115584,-0.458058 0.309977,-0.78987 0.681904,-1.163949 0.335443,-0.337385 0.721709,-0.585564 0.911371,-0.585564 0.131583,0 0.201846,0.08639 0.18136,0.223 -0.0062,0.04108 -0.05862,0.166756 -0.116694,0.279565 -0.05803,0.112715 -0.10036,0.210652 -0.09407,0.217639 0.0063,0.007 0.0028,0.0078 -0.0077,0.0017 -0.02029,-0.01161 -0.220741,0.338977 -0.325829,0.569877 -0.244121,0.536384 -0.22343,0.914731 0.06685,1.222447 0.281142,0.298025 0.859133,0.549032 1.725387,0.749293 1.123193,0.25966 2.325528,0.358041 3.348328,0.273979 0.77753,-0.0639 1.497287,-0.227454 2.182813,-0.496 0.252672,-0.09898 0.835323,-0.395523 1.083138,-0.551266 0.344704,-0.216635 1.094278,-0.76816 1.048733,-0.771642 -0.0084,-6.35e-4 -0.0027,-0.0062 0.01266,-0.0124 0.01533,-0.0062 0.235445,-0.179871 0.489151,-0.385976 1.157618,-0.940422 1.563741,-1.198225 2.095741,-1.330353 0.507425,-0.126025 1.043392,-0.02448 1.445964,0.273962 0.448304,0.332342 0.624166,0.780258 0.578815,1.47423 -0.04033,0.617079 -0.246259,0.995654 -0.743203,1.366263 -0.175546,0.130917 -0.648311,0.394917 -0.676268,0.377639 -0.0074,-0.0046 -0.07316,0.01688 -0.146161,0.04767 -0.598282,0.252324 -1.722031,0.548745 -3.162858,0.834296 -2.015899,0.399521 -3.352754,0.568814 -4.671549,0.59158 -0.946911,0.01635 -1.698322,-0.04695 -2.489386,-0.209706 -0.130391,-0.02683 -0.239622,-0.04623 -0.242737,-0.04311 -0.01176,0.01176 -0.963981,-0.129398 -1.650066,-0.461751 z m 1.624362,0.445427 c -0.0055,-0.0055 -0.01976,-0.0061 -0.03169,-0.0013 -0.01319,0.0053 -0.0093,0.0092 0.01,0.01 0.01743,7.15e-4 0.0272,-0.0032 0.0217,-0.0087 z"
             id="path4063"
             sodipodi:nodetypes="scscssccscscscssccsssssccscscsccccc" /></g></g></clipPath><inkscape:path-effect
       effect="bspline"
       id="path-effect317-8-8"
       is_visible="true"
       lpeversion="1"
       weight="33.333333"
       steps="2"
       helper_size="0"
       apply_no_weight="true"
       apply_with_weight="true"
       only_selected="false" /><clipPath
       clipPathUnits="userSpaceOnUse"
       id="clipPath4151"><path
         style="opacity:1;fill:#2d2d2d;stroke:none;stroke-width:0.0165625"
         d="m 28.107927,31.955996 c -1.274537,-0.06104 -2.570016,-0.236869 -4.305234,-0.584337 -3.124809,-0.625726 -4.490154,-1.29133 -4.733292,-2.307475 -0.03081,-0.128755 -0.03427,-0.179562 -0.02642,-0.387937 0.01299,-0.344833 0.09284,-0.606152 0.272319,-0.891202 0.219956,-0.349333 0.476659,-0.551333 0.82563,-0.649689 0.165905,-0.04676 0.506238,-0.04997 0.707492,-0.0067 0.366516,0.07885 0.810183,0.278601 1.223698,0.550941 0.298925,0.196872 0.383095,0.258454 0.967383,0.707768 0.850355,0.653918 1.190808,0.896032 1.60003,1.137863 0.841875,0.49751 1.8882,0.848189 2.914423,0.976781 0.452823,0.05674 0.619432,0.06606 1.182357,0.06616 0.680229,1.16e-4 1.062824,-0.02916 1.728059,-0.132227 1.303423,-0.201949 2.239183,-0.535307 2.589596,-0.922526 0.161656,-0.178636 0.221099,-0.347211 0.221406,-0.627893 2.53e-4,-0.230645 -0.0356,-0.405482 -0.183086,-0.892727 -0.174422,-0.576253 -0.18573,-0.728759 -0.05973,-0.805586 0.140933,-0.08593 0.369369,0.01678 0.661687,0.297522 0.314258,0.301811 0.53826,0.682092 0.648263,1.100538 0.03345,0.127246 0.0456,0.221143 0.05269,0.407345 0.01087,0.285221 -0.0095,0.455258 -0.08,0.667525 -0.236412,0.711894 -0.864407,1.249709 -1.965668,1.683399 -0.850605,0.334978 -1.894901,0.546654 -2.993099,0.606692 -0.273726,0.01497 -0.987363,0.01825 -1.248503,0.0057 z"
         id="path4153" /></clipPath><clipPath
       clipPathUnits="userSpaceOnUse"
       id="clipPath5934"><path
         style="fill:#2d2d2d;stroke:none;stroke-width:0.0234229"
         d="m 27.845306,22.977369 c -1.149336,-0.06113 -2.461354,-0.246701 -4.209495,-0.59538 -1.38755,-0.276758 -2.374078,-0.538657 -3.051884,-0.810201 -0.128623,-0.05153 -0.414789,-0.175384 -0.468722,-0.208168 -0.09411,-0.05721 -0.353146,-0.192471 -0.563589,-0.387304 -0.240075,-0.222267 -0.387343,-0.498857 -0.467067,-0.788823 -0.06112,-0.22232 -0.09505,-0.774562 -0.04552,-1.019856 0.06239,-0.308958 0.144608,-0.498843 0.37886,-0.731014 0.160306,-0.158881 0.24775,-0.190056 0.405997,-0.267004 0.245234,-0.119246 0.470696,-0.170687 0.74811,-0.170687 0.640742,0 1.130622,0.252246 2.268601,1.168136 0.26373,0.212259 0.647888,0.521288 0.853685,0.686731 1.503965,1.209052 2.873918,1.716354 4.759068,1.762311 1.683315,0.04104 3.634872,-0.356626 4.38816,-0.894161 0.5402,-0.385479 0.529962,-0.889924 0.02558,-1.799203 -0.265969,-0.479483 -0.321182,-0.615688 -0.321182,-0.715808 0,-0.231391 0.303563,-0.177568 0.7222,0.136113 0.474504,0.355543 0.828361,0.832163 0.985933,1.327986 0.0723,0.227517 0.08973,0.665538 0.03607,0.906729 -0.09861,0.443213 -0.401231,0.871465 -0.852008,1.205695 -0.18116,0.134323 -0.543334,0.354808 -0.582815,0.354808 -0.01111,0 -0.137781,0.05263 -0.281482,0.116963 -1.265051,0.566317 -2.916446,0.818518 -4.728499,0.722137 z"
         id="path5936"
         sodipodi:nodetypes="ssssssssssssssssssssssss" /></clipPath></defs><g
     inkscape:label="Layer 1"
     inkscape:groupmode="layer"
     id="layer1"><g
       id="g712"
       transform="matrix(4.3333795,0,0,4.3333795,-79.717137,-69.450285)"
       inkscape:label="stack"
       inkscape:export-filename=".\icon-1024.png"
       inkscape:export-xdpi="384.00003"
       inkscape:export-ydpi="384.00003"><g
         inkscape:groupmode="layer"
         id="layer2"
         inkscape:label="Layer 2"
         transform="matrix(0.98566308,0,0,1,14.797128,14.487966)"
         style="opacity:0.5"><rect
           style="opacity:1;fill:#ffffff;fill-opacity:1;stroke:none;stroke-width:0.351589"
           id="rect6707"
           width="12.108524"
           height="12.254308"
           x="6.3630791"
           y="3.3675959"
           rx="1.8827865"
           ry="2" /></g><g
         id="g580"
         inkscape:label="bottom"><path
           d="m 26.820642,32.181655 c -3.605615,0 -6.531654,-0.982272 -6.531654,-2.178209 v -2.178208 c 0,-0.186958 0.09497,-0.373918 0.234446,-0.537135 0.727053,0.937758 3.255439,1.638107 6.297214,1.638107 3.04178,0 5.573133,-0.703316 6.297224,-1.638107 0.139475,0.163217 0.234442,0.350176 0.234442,0.537135 v 2.178208 c 0,1.195936 -2.926044,2.178209 -6.531656,2.178209 z"
           id="XMLID_7_-4"
           style="fill:#000000;fill-opacity:1;stroke-width:0.029676"
           inkscape:label="plate" /><g
           id="g14435"
           clip-path="url(#clipPath4151)"
           inkscape:label="snake"><path
             style="fill:#19aeff;fill-opacity:1;stroke:url(#linearGradient13363);stroke-width:0.178367px;stroke-linecap:butt;stroke-linejoin:miter;stroke-opacity:1"
             d="m 21.898668,27.679271 c 0.799057,0.495516 1.696916,1.344838 2.685819,1.926161 0.988903,0.581322 2.068644,0.894631 3.130216,1.010083 1.061573,0.115453 2.10491,0.03311 3.050713,-0.136299 0.945803,-0.169407 1.794023,-0.425838 2.223443,-0.776814 0.42942,-0.350977 0.440113,-0.796657 0.316948,-1.302202 -0.123165,-0.505545 -0.379964,-1.070269 -0.221217,-1.146311 0.158746,-0.07604 0.733049,0.336972 1.030193,0.984593 0.297145,0.647621 0.317241,1.529731 -0.462601,2.237773 -0.779842,0.708042 -2.359621,1.242159 -4.110378,1.362938 -1.750757,0.12078 -3.672374,-0.171861 -5.251367,-0.472146 -1.578993,-0.300284 -2.814428,-0.608009 -3.686621,-0.992115 -0.872192,-0.384107 -1.379172,-0.843941 -1.469561,-1.436003 -0.09039,-0.592061 0.236711,-1.315382 0.750582,-1.606153 0.513871,-0.29077 1.214773,-0.14902 2.013831,0.346495 z"
             id="path307"
             sodipodi:nodetypes="ccccccccccccccc" /><path
             id="path14360-7-4"
             style="opacity:0.5;mix-blend-mode:normal;fill:#ffffff;stroke-width:0.571376;stroke-linecap:round;filter:url(#filter14363-5-3)"
             d="m 21.115953,18.289313 c 0.487116,0.78482 -0.599017,0.06682 -1.317514,0.51277 -0.718498,0.445953 -0.797278,1.886984 -1.284395,1.102163 -0.487116,-0.784819 -0.299549,-1.782556 0.418953,-2.228509 0.718496,-0.44595 1.69584,-0.171243 2.182956,0.613576 z"
             sodipodi:nodetypes="sssss"
             transform="matrix(1.1147932,-0.00548956,0.00611981,0.99998493,-1.6979333,9.4723193)" /><path
             style="opacity:0.4;fill:#005c94;fill-opacity:1;stroke:none;stroke-width:0.178367px;stroke-linecap:butt;stroke-linejoin:miter;stroke-opacity:1;filter:url(#filter14153)"
             d="m 24.041236,31.036305 c 1.407137,0.259802 2.887116,0.478664 4.239331,0.506372 1.352216,0.02771 2.575705,-0.135705 3.504598,-0.392006 0.928893,-0.2563 1.562695,-0.605273 1.924329,-1.053677 0.361635,-0.448404 0.450756,-0.995595 0.239255,-1.546557 -0.2115,-0.550963 -0.723337,-1.103916 -0.692215,-1.174049 0.03112,-0.07013 0.605424,0.342883 0.902569,0.990504 0.297144,0.647621 0.31724,1.529731 -0.462602,2.237773 -0.779842,0.708042 -2.359621,1.242159 -4.110379,1.371266 -1.750758,0.129108 -3.672081,-0.146835 -5.387268,-0.476293 -1.715187,-0.329458 -3.222514,-0.712092 -4.116847,-1.251709 -0.894333,-0.539617 -1.173332,-1.234936 -1.089813,-1.273147 0.08352,-0.03821 0.52956,0.581321 1.419055,1.041214 0.889496,0.459894 2.22285,0.760507 3.629987,1.020309 z"
             id="path307-8"
             sodipodi:nodetypes="cccccccccccccc"
             inkscape:original-d="m 23.967316,31.077086 c 1.481024,0.219242 2.961003,0.438104 4.441361,0.656796 1.224145,-0.163201 2.447634,-0.326615 3.671221,-0.490342 0.634333,-0.348855 1.268135,-0.697827 1.90203,-1.047261 0.0895,-0.54764 0.178621,-1.094831 0.267646,-1.643325 -0.512314,-0.55349 -1.024151,-1.106443 -1.536461,-1.659886 0.57454,0.413192 1.148839,0.826212 1.723033,1.239136 0.02023,0.882306 0.04033,1.764416 0.06029,2.646386 -1.579705,0.534331 -3.159483,1.068449 -4.739543,1.602421 -1.921561,-0.27575 -3.842884,-0.551693 -5.765074,-0.827987 -1.508199,-0.382658 -3.015526,-0.765293 -4.52484,-1.148629 -0.279169,-0.696138 -0.558167,-1.391457 -0.837873,-2.088143 0.446656,0.620285 0.892696,1.239816 1.338458,1.859063 1.333137,0.30077 2.666491,0.601383 3.999752,0.901771 z"
             inkscape:path-effect="#path-effect317-8" /></g></g><g
         id="g4074"
         inkscape:label="middle"><path
           d="m 26.820642,27.828205 c -3.605615,0 -6.531654,-0.982271 -6.531654,-2.178206 V 23.47179 c 0,-0.115725 0.04748,-0.234439 0.09497,-0.326434 l 0.139475,-0.210699 c 0.727054,0.937756 3.255439,1.638105 6.297214,1.638105 3.041779,0 5.573137,-0.703316 6.297228,-1.638105 l 0.139475,0.210699 c 0.04752,0.11573 0.0949,0.234441 0.0949,0.326434 v 2.178209 c 0,1.216708 -2.926043,2.178206 -6.531676,2.178206 z"
           id="path455"
           style="fill:#000000;fill-opacity:1;stroke-width:0.029676"
           inkscape:label="plate" /><g
           id="g14430"
           clip-path="url(#clipPath4061)"
           inkscape:label="snake"><path
             style="fill:#19aeff;fill-opacity:1;stroke:url(#linearGradient13347);stroke-width:0.178367px;stroke-linecap:butt;stroke-linejoin:miter;stroke-opacity:1"
             d="m 32.215494,22.817121 c -0.869276,0.418008 -1.941804,1.520011 -3.018078,2.227708 -1.076274,0.707698 -2.156017,1.021006 -3.21759,1.136458 -1.061573,0.115452 -2.104909,0.03311 -3.050712,-0.1363 -0.945802,-0.169408 -1.794022,-0.425838 -2.23637,-0.778614 -0.442347,-0.352776 -0.478903,-0.802059 -0.256525,-1.342992 0.222378,-0.540933 0.703827,-1.173499 0.558042,-1.247748 -0.145784,-0.07425 -0.918736,0.409901 -1.315167,1.093072 -0.396431,0.683171 -0.416527,1.565281 0.363307,2.27332 0.779835,0.708039 2.359624,1.24216 4.110396,1.362939 1.750773,0.120779 3.672392,-0.17186 5.395521,-0.501712 1.723129,-0.329851 3.246597,-0.696661 4.063486,-1.165755 0.81689,-0.469093 0.925115,-1.039687 0.94142,-1.524535 0.01631,-0.484848 -0.05953,-0.883003 -0.430616,-1.215245 -0.371081,-0.332243 -1.037837,-0.598605 -1.907114,-0.180596 z"
             id="path7789-0"
             sodipodi:nodetypes="ccccccccccccccc"
             inkscape:original-d="m 32.418806,22.133065 c -1.072593,1.10206 -2.145121,2.204062 -3.217649,3.306074 -1.079981,0.313505 -2.159724,0.626814 -3.239349,0.939961 -1.043569,-0.08218 -2.086906,-0.164514 -3.130115,-0.247041 -0.848446,-0.256266 -1.696666,-0.512696 -2.544752,-0.76932 -0.03674,-0.449126 -0.07334,-0.898405 -0.10967,-1.347886 0.481302,-0.632424 0.962751,-1.264989 1.444401,-1.897771 -0.773165,0.48435 -1.546116,0.968501 -2.318908,1.452482 -0.02023,0.882309 -0.04033,1.764419 -0.06029,2.646388 1.579688,0.53433 3.159478,1.068448 4.739539,1.602421 1.92158,-0.292479 3.843199,-0.585119 5.765104,-0.877955 1.524391,-0.366765 3.047859,-0.733575 4.573296,-1.101126 0.108005,-0.57094 0.21623,-1.141534 0.324933,-1.713142 -0.07622,-0.397959 -0.152061,-0.796114 -0.227524,-1.194497 -0.666465,-0.265754 -1.333221,-0.532116 -1.999016,-0.798588 z"
             inkscape:path-effect="#path-effect7791-8" /><path
             id="path14360-7"
             style="opacity:0.5;fill:#ffffff;stroke-width:0.571376;stroke-linecap:round;filter:url(#filter14363-5)"
             d="m 21.115953,18.289313 c 0.487116,0.78482 -0.599017,0.06682 -1.317514,0.51277 -0.718498,0.445953 -0.797278,1.886984 -1.284395,1.102163 -0.487116,-0.784819 -0.299549,-1.782556 0.418953,-2.228509 0.718496,-0.44595 1.69584,-0.171243 2.182956,0.613576 z"
             sodipodi:nodetypes="sssss"
             transform="rotate(78.104853,23.546953,29.680552)" /><path
             style="opacity:0.4;fill:#005c94;fill-opacity:1;stroke:none;stroke-width:0.178367px;stroke-linecap:butt;stroke-linejoin:miter;stroke-opacity:1;filter:url(#filter14153-6)"
             d="m 20.200111,32.508004 c 1.403574,0.241236 2.883552,0.460098 4.235767,0.487806 1.352216,0.02771 2.575706,-0.135705 3.504599,-0.392006 0.928893,-0.2563 1.562695,-0.605273 1.924329,-1.053677 0.361635,-0.448404 0.450756,-0.995595 0.239255,-1.546557 -0.2115,-0.550963 -0.723337,-1.103916 -0.692215,-1.174049 0.03112,-0.07013 0.605424,0.342883 0.902569,0.990504 0.297144,0.647621 0.31724,1.529731 -0.462602,2.237773 -0.779842,0.708042 -2.359621,1.242159 -4.110379,1.371266 -1.750758,0.129108 -3.672081,-0.146835 -5.402424,-0.473537 -1.730344,-0.326702 -3.267969,-0.703828 -4.181692,-1.262958 -0.913724,-0.559131 -1.20076,-1.297931 -1.098534,-1.320371 0.102227,-0.02244 0.593514,0.672192 1.502504,1.151639 0.90899,0.479446 2.23525,0.742931 3.638823,0.984167 z"
             id="path307-8-0"
             sodipodi:nodetypes="cccccccccccccc"
             inkscape:original-d="m 20.122627,32.530219 c 1.481025,0.219242 2.961003,0.438104 4.441361,0.656796 1.224145,-0.163201 2.447635,-0.326615 3.671222,-0.490342 0.634333,-0.348855 1.268135,-0.697827 1.90203,-1.047261 0.0895,-0.54764 0.178621,-1.094831 0.267646,-1.643325 -0.512314,-0.55349 -1.024151,-1.106443 -1.536461,-1.659886 0.57454,0.413192 1.148839,0.826212 1.723033,1.239136 0.02023,0.882306 0.04033,1.764416 0.06029,2.646386 -1.579705,0.534331 -3.159483,1.068449 -4.739543,1.602421 -1.921561,-0.27575 -3.842884,-0.551693 -5.765074,-0.827987 -1.538541,-0.377021 -3.076166,-0.754147 -4.615791,-1.132093 -0.288065,-0.740502 -0.575101,-1.479302 -0.862677,-2.220435 0.492046,0.696343 0.983334,1.390974 1.475492,2.086197 1.326062,0.263762 2.652322,0.527247 3.978472,0.790393 z"
             inkscape:path-effect="#path-effect317-8-2"
             transform="matrix(-1,0,0,1,49.845496,-5.8655616)" /></g></g><g
         id="g566"
         clip-path="none"
         inkscape:label="top"><path
           id="path457"
           style="fill:#000000;fill-opacity:1;stroke-width:0.029676"
           inkscape:label="plate"
           d="m 26.820667,16.987555 c -3.605612,0 -6.531901,0.982226 -6.531901,2.178162 v 1.074353 1.077453 c 0,1.195935 2.926289,2.178162 6.531901,2.178162 3.605611,0 6.531384,-0.982608 6.531384,-2.175578 V 20.24317 19.165717 c 0,-1.195939 -2.925773,-2.178162 -6.531384,-2.178162 z m 0,1.053682 c 2.412646,0 4.353222,0.492321 4.353222,1.076937 0,0.584612 -1.943544,1.077454 -4.353222,1.077454 -2.409677,0 -4.353223,-0.492843 -4.353223,-1.077454 0,-0.584614 1.940578,-1.076937 4.353223,-1.076937 z" /><g
           id="g14440"
           clip-path="none"
           inkscape:label="snake"><g
             id="g4169"
             clip-path="url(#clipPath5934)"><path
               style="fill:#19aeff;fill-opacity:1;stroke:url(#linearGradient13337);stroke-width:0.178367px;stroke-linecap:butt;stroke-linejoin:miter;stroke-opacity:1"
               d="m 21.445723,18.293648 c 0.869276,0.418008 1.941804,1.520011 3.018078,2.227708 1.076274,0.707698 2.156016,1.021006 3.217589,1.136458 1.061573,0.115452 2.104909,0.03311 3.050712,-0.1363 0.945802,-0.169408 1.794022,-0.425838 2.23637,-0.778614 0.442347,-0.352776 0.478903,-0.802059 0.256525,-1.342992 -0.222378,-0.540933 -0.703827,-1.173499 -0.558042,-1.247748 0.145784,-0.07425 0.918736,0.409901 1.315167,1.093072 0.396431,0.683171 0.416527,1.565281 -0.363307,2.27332 -0.779835,0.708039 -2.359624,1.24216 -4.110396,1.362939 -1.750773,0.120779 -3.672391,-0.17186 -5.39552,-0.501712 -1.723129,-0.329851 -3.246597,-0.696661 -4.063487,-1.165755 -0.816889,-0.469093 -0.925114,-1.039687 -0.941419,-1.524535 -0.01631,-0.484848 0.05953,-0.883003 0.430615,-1.215246 0.371082,-0.332242 1.037838,-0.598604 1.907115,-0.180595 z"
               id="path7789"
               sodipodi:nodetypes="ccccccccccccccc"
               inkscape:original-d="m 21.242411,17.609592 c 1.072593,1.10206 2.145121,2.204062 3.217649,3.306074 1.079981,0.313505 2.159723,0.626814 3.239348,0.939961 1.043569,-0.08218 2.086906,-0.164514 3.130115,-0.247041 0.848446,-0.256266 1.696666,-0.512696 2.544752,-0.76932 0.03674,-0.449126 0.07334,-0.898405 0.10967,-1.347886 -0.481302,-0.632424 -0.962751,-1.264989 -1.444401,-1.897771 0.773165,0.48435 1.546116,0.968501 2.318908,1.452482 0.02023,0.882309 0.04033,1.764419 0.06029,2.646388 -1.579688,0.53433 -3.159478,1.068448 -4.739539,1.602421 -1.92158,-0.292479 -3.843198,-0.585119 -5.765103,-0.877955 -1.524391,-0.366765 -3.047859,-0.733575 -4.573297,-1.101126 -0.108005,-0.57094 -0.216229,-1.141534 -0.324932,-1.713142 0.07622,-0.397959 0.152061,-0.796114 0.227523,-1.194497 0.666466,-0.265754 1.333222,-0.532116 1.999017,-0.798588 z"
               inkscape:path-effect="#path-effect7791"
               clip-path="none" /><path
               style="opacity:0.4;fill:#005c94;fill-opacity:1;stroke:none;stroke-width:0.178367px;stroke-linecap:butt;stroke-linejoin:miter;stroke-opacity:1;filter:url(#filter14153-6-0)"
               d="m 23.973198,22.062915 c 1.465964,0.305557 2.988803,0.55559 4.341012,0.583294 1.352209,0.0277 2.532834,-0.166886 3.440293,-0.438776 0.907459,-0.27189 1.541261,-0.620863 1.902895,-1.069267 0.361635,-0.448404 0.450756,-0.995595 0.239255,-1.546557 -0.2115,-0.550963 -0.723337,-1.103916 -0.692215,-1.174049 0.03112,-0.07013 0.605424,0.342883 0.902569,0.990504 0.297144,0.647621 0.31724,1.529731 -0.462602,2.237773 -0.779842,0.708042 -2.359621,1.242159 -4.116226,1.371266 -1.756605,0.129107 -3.689619,-0.146835 -5.446211,-0.463657 -1.756592,-0.316822 -3.334978,-0.674195 -4.193402,-1.245989 -0.858424,-0.571793 -0.994614,-1.356607 -0.907064,-1.43762 0.08755,-0.08101 0.398704,0.542512 1.258158,1.034549 0.859454,0.492036 2.267573,0.852971 3.733538,1.158529 z"
               id="path307-8-0-9"
               sodipodi:nodetypes="cccccccccccccc"
               inkscape:original-d="m 23.915219,22.118258 c 1.523908,0.25043 3.046747,0.500463 4.569984,0.75034 1.181266,-0.194386 2.36189,-0.388975 3.542599,-0.583886 0.634333,-0.348855 1.268135,-0.697827 1.90203,-1.047261 0.0895,-0.54764 0.178621,-1.094831 0.267646,-1.643325 -0.512314,-0.55349 -1.024151,-1.106443 -1.536461,-1.659886 0.57454,0.413192 1.148839,0.826212 1.723033,1.239136 0.02023,0.882306 0.04033,1.764416 0.06029,2.646386 -1.579705,0.534331 -3.159483,1.068449 -4.739543,1.602421 -1.933255,-0.27575 -3.866269,-0.551693 -5.800153,-0.827987 -1.579312,-0.357378 -3.157698,-0.71475 -4.738152,-1.072796 -0.136138,-0.785773 -0.272328,-1.570587 -0.408999,-2.356912 0.311665,0.624284 0.622819,1.247808 0.9337,1.87105 1.407874,0.361069 2.815993,0.722004 4.224026,1.08272 z"
               inkscape:path-effect="#path-effect317-8-2-9" /><path
               id="path14360"
               style="opacity:0.5;fill:#ffffff;stroke-width:0.571376;stroke-linecap:round;filter:url(#filter14363)"
               d="m 21.7072,18.478839 c 0.487116,0.78482 -0.599017,0.06682 -1.317514,0.51277 -0.718498,0.445953 -0.797278,1.886984 -1.284395,1.102163 -0.487116,-0.784819 -0.299549,-1.782556 0.418953,-2.228509 0.718496,-0.44595 1.69584,-0.171243 2.182956,0.613576 z"
               sodipodi:nodetypes="sssss" /></g></g></g></g></g></svg>
