<?xml version="1.0" encoding="UTF-8" standalone="no"?>
<!-- Created with Inkscape (http://www.inkscape.org/) -->

<svg
   width="120mm"
   height="20mm"
   viewBox="0 0 120 20"
   version="1.1"
   id="svg5"
   xml:space="preserve"
   inkscape:version="1.2.2 (732a01da63, 2022-12-09, custom)"
   sodipodi:docname="simple_coilv2.svg"
   xmlns:inkscape="http://www.inkscape.org/namespaces/inkscape"
   xmlns:sodipodi="http://sodipodi.sourceforge.net/DTD/sodipodi-0.dtd"
   xmlns:xlink="http://www.w3.org/1999/xlink"
   xmlns="http://www.w3.org/2000/svg"
   xmlns:svg="http://www.w3.org/2000/svg"><sodipodi:namedview
     id="namedview7"
     pagecolor="#ffffff"
     bordercolor="#000000"
     borderopacity="0.25"
     inkscape:showpageshadow="2"
     inkscape:pageopacity="0.0"
     inkscape:pagecheckerboard="0"
     inkscape:deskcolor="#d1d1d1"
     inkscape:document-units="mm"
     showgrid="false"
     inkscape:zoom="1.9855336"
     inkscape:cx="282.79551"
     inkscape:cy="50.112473"
     inkscape:window-width="1920"
     inkscape:window-height="1016"
     inkscape:window-x="0"
     inkscape:window-y="0"
     inkscape:window-maximized="1"
     inkscape:current-layer="layer1"
     showguides="true" /><defs
     id="defs2"><linearGradient
       inkscape:collect="always"
       id="linearGradient13369"><stop
         style="stop-color:#19aeff;stop-opacity:1;"
         offset="0"
         id="stop13367" /><stop
         style="stop-color:#005c94;stop-opacity:1;"
         offset="1"
         id="stop13365" /></linearGradient><linearGradient
       inkscape:collect="always"
       id="linearGradient13353"><stop
         style="stop-color:#005c94;stop-opacity:1;"
         offset="0"
         id="stop13351" /><stop
         style="stop-color:#19aeff;stop-opacity:1;"
         offset="1"
         id="stop13349" /></linearGradient><linearGradient
       inkscape:collect="always"
       id="linearGradient11178"><stop
         style="stop-color:#19aeff;stop-opacity:1;"
         offset="0"
         id="stop11176" /><stop
         style="stop-color:#005c94;stop-opacity:1;"
         offset="1"
         id="stop11174" /></linearGradient><inkscape:path-effect
       effect="bspline"
       id="path-effect2922"
       is_visible="true"
       lpeversion="1"
       weight="33.333333"
       steps="2"
       helper_size="0"
       apply_no_weight="true"
       apply_with_weight="true"
       only_selected="false" /><inkscape:path-effect
       effect="bspline"
       id="path-effect7791"
       is_visible="true"
       lpeversion="1"
       weight="33.333333"
       steps="2"
       helper_size="0"
       apply_no_weight="true"
       apply_with_weight="true"
       only_selected="false" /><inkscape:path-effect
       effect="bspline"
       id="path-effect7791-7"
       is_visible="true"
       lpeversion="1"
       weight="33.333333"
       steps="2"
       helper_size="0"
       apply_no_weight="true"
       apply_with_weight="true"
       only_selected="false" /><inkscape:path-effect
       effect="bspline"
       id="path-effect317"
       is_visible="true"
       lpeversion="1"
       weight="33.333333"
       steps="2"
       helper_size="0"
       apply_no_weight="true"
       apply_with_weight="true"
       only_selected="false" /><inkscape:path-effect
       effect="bspline"
       id="path-effect6151"
       is_visible="true"
       lpeversion="1"
       weight="33.333333"
       steps="2"
       helper_size="0"
       apply_no_weight="true"
       apply_with_weight="true"
       only_selected="false" /><inkscape:path-effect
       effect="bspline"
       id="path-effect8277"
       is_visible="true"
       lpeversion="1"
       weight="33.333333"
       steps="2"
       helper_size="0"
       apply_no_weight="true"
       apply_with_weight="true"
       only_selected="false" /><inkscape:path-effect
       effect="bspline"
       id="path-effect8281"
       is_visible="true"
       lpeversion="1"
       weight="33.333333"
       steps="2"
       helper_size="0"
       apply_no_weight="true"
       apply_with_weight="true"
       only_selected="false" /><inkscape:path-effect
       effect="bspline"
       id="path-effect8285"
       is_visible="true"
       lpeversion="1"
       weight="33.333333"
       steps="2"
       helper_size="0"
       apply_no_weight="true"
       apply_with_weight="true"
       only_selected="false" /><inkscape:path-effect
       effect="bspline"
       id="path-effect8289"
       is_visible="true"
       lpeversion="1"
       weight="33.333333"
       steps="2"
       helper_size="0"
       apply_no_weight="true"
       apply_with_weight="true"
       only_selected="false" /><inkscape:path-effect
       effect="bspline"
       id="path-effect6147"
       is_visible="true"
       lpeversion="1"
       weight="33.333333"
       steps="2"
       helper_size="0"
       apply_no_weight="true"
       apply_with_weight="true"
       only_selected="false" /><inkscape:path-effect
       effect="bspline"
       id="path-effect6159"
       is_visible="true"
       lpeversion="1"
       weight="33.333333"
       steps="2"
       helper_size="0"
       apply_no_weight="true"
       apply_with_weight="true"
       only_selected="false" /><inkscape:path-effect
       effect="bspline"
       id="path-effect8207"
       is_visible="true"
       lpeversion="1"
       weight="33.333333"
       steps="2"
       helper_size="0"
       apply_no_weight="true"
       apply_with_weight="true"
       only_selected="false" /><inkscape:path-effect
       effect="bspline"
       id="path-effect7791-8"
       is_visible="true"
       lpeversion="1"
       weight="33.333333"
       steps="2"
       helper_size="0"
       apply_no_weight="true"
       apply_with_weight="true"
       only_selected="false" /><linearGradient
       inkscape:collect="always"
       xlink:href="#linearGradient11178"
       id="linearGradient13337"
       x1="19.016893"
       y1="20.495253"
       x2="34.337051"
       y2="20.495253"
       gradientUnits="userSpaceOnUse" /><linearGradient
       inkscape:collect="always"
       xlink:href="#linearGradient13353"
       id="linearGradient13347"
       x1="19.324165"
       y1="25.018726"
       x2="34.644325"
       y2="25.018726"
       gradientUnits="userSpaceOnUse" /><linearGradient
       inkscape:collect="always"
       xlink:href="#linearGradient13369"
       id="linearGradient13363"
       x1="19.029551"
       y1="29.524986"
       x2="34.391991"
       y2="29.524986"
       gradientUnits="userSpaceOnUse" /><inkscape:path-effect
       effect="bspline"
       id="path-effect317-8"
       is_visible="true"
       lpeversion="1"
       weight="33.333333"
       steps="2"
       helper_size="0"
       apply_no_weight="true"
       apply_with_weight="true"
       only_selected="false" /><filter
       inkscape:collect="always"
       style="color-interpolation-filters:sRGB"
       id="filter14153"
       x="-0.0078296083"
       y="-0.025676344"
       width="1.0156592"
       height="1.0513527"><feGaussianBlur
         inkscape:collect="always"
         stdDeviation="0.049638095"
         id="feGaussianBlur14155" /></filter><filter
       inkscape:collect="always"
       style="color-interpolation-filters:sRGB"
       id="filter14153-6"
       x="-0.0078296083"
       y="-0.025676344"
       width="1.0156592"
       height="1.0513527"><feGaussianBlur
         inkscape:collect="always"
         stdDeviation="0.049638095"
         id="feGaussianBlur14155-8" /></filter><inkscape:path-effect
       effect="bspline"
       id="path-effect317-8-2"
       is_visible="true"
       lpeversion="1"
       weight="33.333333"
       steps="2"
       helper_size="0"
       apply_no_weight="true"
       apply_with_weight="true"
       only_selected="false" /><filter
       inkscape:collect="always"
       style="color-interpolation-filters:sRGB"
       id="filter14153-6-0"
       x="-0.0078296083"
       y="-0.025676344"
       width="1.0156592"
       height="1.0513527"><feGaussianBlur
         inkscape:collect="always"
         stdDeviation="0.049638095"
         id="feGaussianBlur14155-8-1" /></filter><inkscape:path-effect
       effect="bspline"
       id="path-effect317-8-2-9"
       is_visible="true"
       lpeversion="1"
       weight="33.333333"
       steps="2"
       helper_size="0"
       apply_no_weight="true"
       apply_with_weight="true"
       only_selected="false" /><filter
       inkscape:collect="always"
       style="color-interpolation-filters:sRGB"
       id="filter14363"
       x="-0.63865466"
       y="-0.71573172"
       width="2.2773093"
       height="2.4314634"><feGaussianBlur
         inkscape:collect="always"
         stdDeviation="0.796847"
         id="feGaussianBlur14365" /></filter><filter
       inkscape:collect="always"
       style="color-interpolation-filters:sRGB"
       id="filter14363-5"
       x="-0.6454254"
       y="-0.7233196"
       width="2.2908508"
       height="2.4466392"><feGaussianBlur
         inkscape:collect="always"
         stdDeviation="0.80529479"
         id="feGaussianBlur14365-0" /></filter><filter
       inkscape:collect="always"
       style="color-interpolation-filters:sRGB"
       id="filter14363-5-3"
       x="-0.64184978"
       y="-0.71931245"
       width="2.2836996"
       height="2.4386249"><feGaussianBlur
         inkscape:collect="always"
         stdDeviation="0.80083352"
         id="feGaussianBlur14365-0-6" /></filter></defs><g
     inkscape:label="Layer 1"
     inkscape:groupmode="layer"
     id="layer1"><path
       d="m 25.459647,13.328217 v 4.023868 H 23.447712 V 6.6998584 h 2.011935 v 1.1575512 q 0.316948,-0.668348 0.833712,-1.0059671 0.516764,-0.3376191 1.212673,-0.3376191 1.322915,0 2.053275,1.0610886 0.73036,1.0610885 0.73036,2.990341 0,1.956812 -0.74414,3.00412 -0.73725,1.047309 -2.108397,1.047309 -0.620117,0 -1.11621,-0.316949 -0.489203,-0.323839 -0.861273,-0.971516 z m 2.811195,-2.776745 q 0,-1.1162099 -0.37207,-1.750107 -0.37207,-0.6338971 -1.026637,-0.6338971 -0.654568,0 -1.033528,0.6338971 -0.37896,0.6338971 -0.37896,1.750107 0,1.11621 0.37896,1.750107 0.37896,0.633897 1.033528,0.633897 0.654567,0 1.026637,-0.633897 0.37207,-0.633897 0.37207,-1.750107 z"
       id="path9144"
       style="font-weight:bold;font-size:14.1111px;line-height:1.25;font-family:'DejaVu Sans Mono';-inkscape-font-specification:'DejaVu Sans Mono Bold';stroke-width:0.35216;fill:#000000;fill-opacity:1;stroke:none" /><path
       d="m 35.808705,15.250579 q -0.406521,1.088649 -0.978406,1.584742 -0.564995,0.502984 -1.378037,0.502984 h -1.667425 v -1.536511 h 0.819932 q 0.620117,0 0.909505,-0.213596 0.289387,-0.206706 0.585665,-0.971516 l 0.151584,-0.413411 -2.935219,-7.5034126 h 2.122177 l 1.763888,5.0091646 1.688096,-5.0091646 h 2.122177 z"
       id="path9146"
       style="font-weight:bold;font-size:14.1111px;line-height:1.25;font-family:'DejaVu Sans Mono';-inkscape-font-specification:'DejaVu Sans Mono Bold';stroke-width:0.35216;fill:#000000;fill-opacity:1;stroke:none" /><path
       d="m 46.233556,6.9410149 v 1.7638875 q -0.558105,-0.3582896 -1.164441,-0.5374345 -0.599446,-0.186035 -1.205783,-0.186035 -0.675238,0 -1.019747,0.1998154 -0.344509,0.1929252 -0.344509,0.5787756 0,0.5512148 1.474499,0.8957241 l 0.07579,0.020671 0.578776,0.1378037 q 1.10243,0.2618263 1.612303,0.8474923 0.516764,0.578776 0.516764,1.570962 0,1.192003 -0.785481,1.791449 -0.778591,0.592556 -2.349553,0.592556 -0.695909,0 -1.426269,-0.124024 -0.730359,-0.117133 -1.48139,-0.358289 v -1.763888 q 0.668348,0.37896 1.357367,0.578776 0.695909,0.199815 1.343586,0.199815 0.709689,0 1.074869,-0.206705 0.36518,-0.206706 0.36518,-0.599447 0,-0.38585 -0.261827,-0.592556 -0.254937,-0.206705 -1.226453,-0.440971 l -0.558105,-0.124024 q -1.157551,-0.261827 -1.688096,-0.819932 -0.530544,-0.5581045 -0.530544,-1.4951697 0,-1.1162101 0.806152,-1.7363268 0.806152,-0.6201167 2.266871,-0.6201167 0.654568,0 1.302245,0.1102429 0.654568,0.1033528 1.267794,0.3169486 z"
       id="path9148"
       style="font-weight:bold;font-size:14.1111px;line-height:1.25;font-family:'DejaVu Sans Mono';-inkscape-font-specification:'DejaVu Sans Mono Bold';stroke-width:0.35216;fill:#000000;fill-opacity:1;stroke:none" /><path
       d="m 49.423713,6.6998584 h 3.996308 v 6.1667166 h 2.508027 v 1.550291 h -7.04177 v -1.550291 h 2.514918 V 8.2501502 h -1.977483 z m 1.977483,-3.7551512 h 2.018825 v 2.3564435 h -2.018825 z"
       id="path9150"
       style="font-weight:bold;font-size:14.1111px;line-height:1.25;font-family:'DejaVu Sans Mono';-inkscape-font-specification:'DejaVu Sans Mono Bold';stroke-width:0.35216;fill:#000000;fill-opacity:1;stroke:none" /><path
       d="m 61.150808,7.4715592 q 0.227376,-0.4892032 0.578775,-0.7234695 0.3514,-0.2342663 0.861274,-0.2342663 0.999077,0 1.378037,0.6890185 0.38585,0.6890186 0.38585,2.8663171 v 4.347707 H 62.7011 V 9.4628228 q 0,-0.8612732 -0.130914,-1.150661 -0.130913,-0.2893878 -0.475423,-0.2893878 -0.344509,0 -0.482313,0.296278 -0.137803,0.296278 -0.137803,1.1437708 V 14.416866 H 59.841673 V 9.4628228 q 0,-0.8474928 -0.137804,-1.1437708 -0.137804,-0.296278 -0.482313,-0.296278 -0.344509,0 -0.475423,0.2893878 -0.130913,0.2893878 -0.130913,1.150661 V 14.416866 H 56.961575 V 6.6998584 h 1.46761 v 0.7992615 q 0.172254,-0.4547522 0.551214,-0.7165793 0.378961,-0.2687172 0.847493,-0.2687172 0.468533,0 0.854383,0.2824976 0.385851,0.2756074 0.468533,0.6752382 z"
       id="path9152"
       style="font-weight:bold;font-size:14.1111px;line-height:1.25;font-family:'DejaVu Sans Mono';-inkscape-font-specification:'DejaVu Sans Mono Bold';stroke-width:0.35216;fill:#000000;fill-opacity:1;stroke:none" /><path
       d="m 67.93764,13.328217 v 4.023868 H 65.925705 V 6.6998584 h 2.011935 v 1.1575512 q 0.316948,-0.668348 0.833712,-1.0059671 0.516764,-0.3376191 1.212673,-0.3376191 1.322915,0 2.053275,1.0610886 0.73036,1.0610885 0.73036,2.990341 0,1.956812 -0.74414,3.00412 -0.73725,1.047309 -2.108397,1.047309 -0.620117,0 -1.11621,-0.316949 -0.489203,-0.323839 -0.861273,-0.971516 z m 2.811195,-2.776745 q 0,-1.1162099 -0.37207,-1.750107 -0.37207,-0.6338971 -1.026637,-0.6338971 -0.654568,0 -1.033528,0.6338971 -0.37896,0.6338971 -0.37896,1.750107 0,1.11621 0.37896,1.750107 0.37896,0.633897 1.033528,0.633897 0.654567,0 1.026637,-0.633897 0.37207,-0.633897 0.37207,-1.750107 z"
       id="path9154"
       style="font-weight:bold;font-size:14.1111px;line-height:1.25;font-family:'DejaVu Sans Mono';-inkscape-font-specification:'DejaVu Sans Mono Bold';stroke-width:0.35216;fill:#000000;fill-opacity:1;stroke:none" /><path
       d="M 76.054281,11.19915 V 5.2460292 H 74.007896 V 3.6957374 h 4.065209 V 11.19915 q 0,0.909504 0.282498,1.288464 0.282498,0.378961 0.957736,0.378961 h 1.612303 v 1.550291 h -2.177298 q -1.440049,0 -2.067056,-0.74414 -0.627007,-0.74414 -0.627007,-2.473576 z"
       id="path9156"
       style="font-weight:bold;font-size:14.1111px;line-height:1.25;font-family:'DejaVu Sans Mono';-inkscape-font-specification:'DejaVu Sans Mono Bold';stroke-width:0.35216;fill:#000000;fill-opacity:1;stroke:none" /><path
       d="m 89.476362,14.037906 q -0.702799,0.289388 -1.433159,0.434082 -0.73036,0.144694 -1.543402,0.144694 -1.936142,0 -2.962779,-1.033528 -1.019748,-1.040418 -1.019748,-2.990341 0,-1.8879106 0.985297,-2.9834501 0.985296,-1.0955395 2.687172,-1.0955395 1.715656,0 2.659612,1.0197474 0.950845,1.0128573 0.950845,2.8594272 v 0.819932 h -5.229651 q 0.0069,0.909504 0.537435,1.357367 0.530544,0.447862 1.584743,0.447862 0.695908,0 1.371147,-0.199816 0.675238,-0.199815 1.412488,-0.633897 z M 87.767596,9.6970891 q -0.01378,-0.7992615 -0.413412,-1.2057825 -0.39274,-0.4134111 -1.164441,-0.4134111 -0.695909,0 -1.10932,0.4271915 -0.413411,0.4203013 -0.489203,1.1988923 z"
       id="path9158"
       style="font-weight:bold;font-size:14.1111px;line-height:1.25;font-family:'DejaVu Sans Mono';-inkscape-font-specification:'DejaVu Sans Mono Bold';stroke-width:0.35216;fill:#000000;fill-opacity:1;stroke:none" /><path
       d="m 97.207149,6.9410149 v 1.7638875 q -0.558105,-0.3582896 -1.164441,-0.5374345 -0.599447,-0.186035 -1.205783,-0.186035 -0.675238,0 -1.019747,0.1998154 -0.34451,0.1929252 -0.34451,0.5787756 0,0.5512148 1.4745,0.8957241 l 0.07579,0.020671 0.578776,0.1378037 q 1.102429,0.2618263 1.612303,0.8474923 0.516764,0.578776 0.516764,1.570962 0,1.192003 -0.785481,1.791449 -0.778591,0.592556 -2.349553,0.592556 -0.695909,0 -1.426269,-0.124024 -0.73036,-0.117133 -1.48139,-0.358289 v -1.763888 q 0.668348,0.37896 1.357367,0.578776 0.695909,0.199815 1.343586,0.199815 0.709689,0 1.074869,-0.206705 0.36518,-0.206706 0.36518,-0.599447 0,-0.38585 -0.261827,-0.592556 -0.254937,-0.206705 -1.226453,-0.440971 l -0.558105,-0.124024 q -1.157552,-0.261827 -1.688096,-0.819932 -0.530544,-0.5581045 -0.530544,-1.4951697 0,-1.1162101 0.806152,-1.7363268 0.806151,-0.6201167 2.266871,-0.6201167 0.654567,0 1.302245,0.1102429 0.654567,0.1033528 1.267794,0.3169486 z"
       id="path9160"
       style="font-weight:bold;font-size:14.1111px;line-height:1.25;font-family:'DejaVu Sans Mono';-inkscape-font-specification:'DejaVu Sans Mono Bold';stroke-width:0.35216;fill:#000000;fill-opacity:1;stroke:none" /><path
       d="m 101.51351,10.551472 q 0,1.11621 0.37207,1.750107 0.37207,0.633897 1.02664,0.633897 0.65457,0 1.03353,-0.633897 0.37896,-0.633897 0.37896,-1.750107 0,-1.1162099 -0.37896,-1.750107 -0.37896,-0.6338971 -1.03353,-0.6338971 -0.65457,0 -1.02664,0.6338971 -0.37207,0.6338971 -0.37207,1.750107 z m 2.8112,2.776745 q -0.37207,0.647677 -0.86816,0.971516 -0.48921,0.316949 -1.10932,0.316949 -1.37115,0 -2.11529,-1.047309 -0.737251,-1.047308 -0.737251,-3.00412 0,-1.9292525 0.730361,-2.990341 0.73036,-1.0610886 2.05327,-1.0610886 0.69591,0 1.20579,0.3376191 0.51676,0.3376191 0.8406,1.0059671 V 6.6998584 h 2.01193 V 17.352085 h -2.01193 z"
       id="path9162"
       style="font-weight:bold;font-size:14.1111px;line-height:1.25;font-family:'DejaVu Sans Mono';-inkscape-font-specification:'DejaVu Sans Mono Bold';stroke-width:0.35216;fill:#000000;fill-opacity:1;stroke:none" /><path
       d="M 110.03667,11.19915 V 5.2460292 h -2.04638 V 3.6957374 h 4.06521 V 11.19915 q 0,0.909504 0.28249,1.288464 0.2825,0.378961 0.95774,0.378961 h 1.6123 v 1.550291 h -2.17729 q -1.44005,0 -2.06706,-0.74414 -0.62701,-0.74414 -0.62701,-2.473576 z"
       id="path9164"
       style="font-weight:bold;font-size:14.1111px;line-height:1.25;font-family:'DejaVu Sans Mono';-inkscape-font-specification:'DejaVu Sans Mono Bold';stroke-width:0.35216;fill:#000000;fill-opacity:1;stroke:none" /><g
       id="g712"
       transform="translate(-14.622445,-14.487966)"><path
         d="m 26.820642,23.49553 c -3.605615,0 -6.531654,-0.982272 -6.531654,-2.178208 v -1.077233 -1.074265 c 0,-1.195937 2.926039,-2.178211 6.531654,-2.178211 3.605615,0 6.531659,0.982271 6.531659,2.178211 v 1.077232 1.077231 c 0,1.192971 -2.926044,2.175243 -6.531659,2.175243 z"
         id="path457"
         style="fill:#0e232e;stroke-width:0.029676" /><path
         d="m 26.820642,18.041106 c -2.412647,0 -4.353448,0.492621 -4.353448,1.077236 0,0.584611 1.943769,1.077231 4.353448,1.077231 2.409681,0 4.353451,-0.492619 4.353451,-1.077231 0,-0.584617 -1.940802,-1.077236 -4.353451,-1.077236 z"
         id="path459"
         style="fill:#ffffff;fill-opacity:1;stroke-width:0.029676" /><path
         d="m 26.820642,27.828205 c -3.605615,0 -6.531654,-0.982271 -6.531654,-2.178206 V 23.47179 c 0,-0.115725 0.04748,-0.234439 0.09497,-0.326434 l 0.139475,-0.210699 c 0.727054,0.937756 3.255439,1.638105 6.297214,1.638105 3.041779,0 5.573137,-0.703316 6.297228,-1.638105 l 0.139475,0.210699 c 0.04752,0.11573 0.0949,0.234441 0.0949,0.326434 v 2.178209 c 0,1.216708 -2.926043,2.178206 -6.531676,2.178206 z"
         id="path455"
         style="fill:#0e232e;stroke-width:0.029676" /><path
         d="m 26.820642,32.181655 c -3.605615,0 -6.531654,-0.982272 -6.531654,-2.178209 v -2.178208 c 0,-0.186958 0.09497,-0.373918 0.234446,-0.537135 0.727053,0.937758 3.255439,1.638107 6.297214,1.638107 3.04178,0 5.573133,-0.703316 6.297224,-1.638107 0.139475,0.163217 0.234442,0.350176 0.234442,0.537135 v 2.178208 c 0,1.195936 -2.926044,2.178209 -6.531656,2.178209 z"
         id="XMLID_7_-4"
         style="fill:#0e232e;stroke-width:0.029676" /><g
         id="g14435"><path
           style="fill:#19aeff;fill-opacity:1;stroke:url(#linearGradient13363);stroke-width:0.178367px;stroke-linecap:butt;stroke-linejoin:miter;stroke-opacity:1"
           d="m 21.898668,27.679271 c 0.799057,0.495516 1.696916,1.344838 2.685819,1.926161 0.988903,0.581322 2.068644,0.894631 3.130216,1.010083 1.061573,0.115453 2.10491,0.03311 3.050713,-0.136299 0.945803,-0.169407 1.794023,-0.425838 2.223443,-0.776814 0.42942,-0.350977 0.440113,-0.796657 0.316948,-1.302202 -0.123165,-0.505545 -0.379964,-1.070269 -0.221217,-1.146311 0.158746,-0.07604 0.733049,0.336972 1.030193,0.984593 0.297145,0.647621 0.317241,1.529731 -0.462601,2.237773 -0.779842,0.708042 -2.359621,1.242159 -4.110378,1.362938 -1.750757,0.12078 -3.672374,-0.171861 -5.251367,-0.472146 -1.578993,-0.300284 -2.814428,-0.608009 -3.686621,-0.992115 -0.872192,-0.384107 -1.379172,-0.843941 -1.469561,-1.436003 -0.09039,-0.592061 0.236711,-1.315382 0.750582,-1.606153 0.513871,-0.29077 1.214773,-0.14902 2.013831,0.346495 z"
           id="path307"
           sodipodi:nodetypes="ccccccccccccccc" /><path
           id="path14360-7-4"
           style="opacity:0.5;mix-blend-mode:normal;fill:#ffffff;stroke-width:0.571376;stroke-linecap:round;filter:url(#filter14363-5-3)"
           d="m 21.115953,18.289313 c 0.487116,0.78482 -0.599017,0.06682 -1.317514,0.51277 -0.718498,0.445953 -0.797278,1.886984 -1.284395,1.102163 -0.487116,-0.784819 -0.299549,-1.782556 0.418953,-2.228509 0.718496,-0.44595 1.69584,-0.171243 2.182956,0.613576 z"
           sodipodi:nodetypes="sssss"
           transform="matrix(1.1147932,-0.00548956,0.00611981,0.99998493,-1.5987146,9.5053922)" /><path
           style="opacity:0.4;fill:#005c94;fill-opacity:1;stroke:none;stroke-width:0.178367px;stroke-linecap:butt;stroke-linejoin:miter;stroke-opacity:1;filter:url(#filter14153)"
           d="m 24.103262,31.031486 c 1.345111,0.264621 2.82509,0.483483 4.177305,0.511191 1.352216,0.02771 2.575705,-0.135705 3.504598,-0.392006 0.928893,-0.2563 1.562695,-0.605273 1.924329,-1.053677 0.361635,-0.448404 0.450756,-0.995595 0.239255,-1.546557 -0.2115,-0.550963 -0.723337,-1.103916 -0.692215,-1.174049 0.03112,-0.07013 0.605424,0.342883 0.902569,0.990504 0.297144,0.647621 0.31724,1.529731 -0.462602,2.237773 -0.779842,0.708042 -2.359621,1.242159 -4.110379,1.371266 -1.750758,0.129108 -3.672081,-0.146835 -5.387268,-0.476293 -1.715187,-0.329458 -3.222514,-0.712092 -4.086528,-1.243438 -0.864014,-0.531346 -1.082442,-1.210146 -0.936851,-1.253189 0.145591,-0.04304 0.655004,0.550311 1.51418,1.001952 0.859176,0.451642 2.068496,0.761902 3.413607,1.026523 z"
           id="path307-8"
           sodipodi:nodetypes="cccccccccccccc"
           inkscape:original-d="m 23.967316,31.077086 c 1.481024,0.219242 2.961003,0.438104 4.441361,0.656796 1.224145,-0.163201 2.447634,-0.326615 3.671221,-0.490342 0.634333,-0.348855 1.268135,-0.697827 1.90203,-1.047261 0.0895,-0.54764 0.178621,-1.094831 0.267646,-1.643325 -0.512314,-0.55349 -1.024151,-1.106443 -1.536461,-1.659886 0.57454,0.413192 1.148839,0.826212 1.723033,1.239136 0.02023,0.882306 0.04033,1.764416 0.06029,2.646386 -1.579705,0.534331 -3.159483,1.068449 -4.739543,1.602421 -1.921561,-0.27575 -3.842884,-0.551693 -5.765074,-0.827987 -1.508199,-0.382658 -3.015526,-0.765293 -4.52484,-1.148629 -0.218504,-0.679593 -0.436933,-1.358393 -0.655972,-2.038534 0.51008,0.594088 1.019493,1.187443 1.528627,1.780515 1.209149,0.310414 2.41847,0.620674 3.627682,0.93071 z"
           inkscape:path-effect="#path-effect317-8" /></g><g
         id="g14430"><path
           style="fill:#19aeff;fill-opacity:1;stroke:url(#linearGradient13347);stroke-width:0.178367px;stroke-linecap:butt;stroke-linejoin:miter;stroke-opacity:1"
           d="m 32.215494,22.817121 c -0.869276,0.418008 -1.941804,1.520011 -3.018078,2.227708 -1.076274,0.707698 -2.156017,1.021006 -3.21759,1.136458 -1.061573,0.115452 -2.104909,0.03311 -3.050712,-0.1363 -0.945802,-0.169408 -1.794022,-0.425838 -2.23637,-0.778614 -0.442347,-0.352776 -0.478903,-0.802059 -0.256525,-1.342992 0.222378,-0.540933 0.703827,-1.173499 0.558042,-1.247748 -0.145784,-0.07425 -0.918736,0.409901 -1.315167,1.093072 -0.396431,0.683171 -0.416527,1.565281 0.363307,2.27332 0.779835,0.708039 2.359624,1.24216 4.110396,1.362939 1.750773,0.120779 3.672392,-0.17186 5.395521,-0.501712 1.723129,-0.329851 3.246597,-0.696661 4.063486,-1.165755 0.81689,-0.469093 0.925115,-1.039687 0.94142,-1.524535 0.01631,-0.484848 -0.05953,-0.883003 -0.430616,-1.215245 -0.371081,-0.332243 -1.037837,-0.598605 -1.907114,-0.180596 z"
           id="path7789-0"
           sodipodi:nodetypes="ccccccccccccccc"
           inkscape:original-d="m 32.418806,22.133065 c -1.072593,1.10206 -2.145121,2.204062 -3.217649,3.306074 -1.079981,0.313505 -2.159724,0.626814 -3.239349,0.939961 -1.043569,-0.08218 -2.086906,-0.164514 -3.130115,-0.247041 -0.848446,-0.256266 -1.696666,-0.512696 -2.544752,-0.76932 -0.03674,-0.449126 -0.07334,-0.898405 -0.10967,-1.347886 0.481302,-0.632424 0.962751,-1.264989 1.444401,-1.897771 -0.773165,0.48435 -1.546116,0.968501 -2.318908,1.452482 -0.02023,0.882309 -0.04033,1.764419 -0.06029,2.646388 1.579688,0.53433 3.159478,1.068448 4.739539,1.602421 1.92158,-0.292479 3.843199,-0.585119 5.765104,-0.877955 1.524391,-0.366765 3.047859,-0.733575 4.573296,-1.101126 0.108005,-0.57094 0.21623,-1.141534 0.324933,-1.713142 -0.07622,-0.397959 -0.152061,-0.796114 -0.227524,-1.194497 -0.666465,-0.265754 -1.333221,-0.532116 -1.999016,-0.798588 z"
           inkscape:path-effect="#path-effect7791-8" /><path
           id="path14360-7"
           style="opacity:0.5;fill:#ffffff;stroke-width:0.571376;stroke-linecap:round;filter:url(#filter14363-5)"
           d="m 21.115953,18.289313 c 0.487116,0.78482 -0.599017,0.06682 -1.317514,0.51277 -0.718498,0.445953 -0.797278,1.886984 -1.284395,1.102163 -0.487116,-0.784819 -0.299549,-1.782556 0.418953,-2.228509 0.718496,-0.44595 1.69584,-0.171243 2.182956,0.613576 z"
           sodipodi:nodetypes="sssss"
           transform="rotate(78.104853,23.368898,29.419424)" /><path
           style="opacity:0.4;fill:#005c94;fill-opacity:1;stroke:none;stroke-width:0.178367px;stroke-linecap:butt;stroke-linejoin:miter;stroke-opacity:1;filter:url(#filter14153-6)"
           d="m 20.258574,32.484619 c 1.345111,0.264621 2.825089,0.483483 4.177304,0.511191 1.352216,0.02771 2.575706,-0.135705 3.504599,-0.392006 0.928893,-0.2563 1.562695,-0.605273 1.924329,-1.053677 0.361635,-0.448404 0.450756,-0.995595 0.239255,-1.546557 -0.2115,-0.550963 -0.723337,-1.103916 -0.692215,-1.174049 0.03112,-0.07013 0.605424,0.342883 0.902569,0.990504 0.297144,0.647621 0.31724,1.529731 -0.462602,2.237773 -0.779842,0.708042 -2.359621,1.242159 -4.110379,1.371266 -1.750758,0.129108 -3.672081,-0.146835 -5.387268,-0.476293 -1.715187,-0.329458 -3.222514,-0.712092 -4.086528,-1.243438 -0.864014,-0.531346 -1.082442,-1.210146 -0.936851,-1.253189 0.145591,-0.04304 0.655004,0.550311 1.51418,1.001952 0.859176,0.451642 2.068496,0.761903 3.413607,1.026523 z"
           id="path307-8-0"
           sodipodi:nodetypes="cccccccccccccc"
           inkscape:original-d="m 20.122627,32.530219 c 1.481025,0.219242 2.961003,0.438104 4.441361,0.656796 1.224145,-0.163201 2.447635,-0.326615 3.671222,-0.490342 0.634333,-0.348855 1.268135,-0.697827 1.90203,-1.047261 0.0895,-0.54764 0.178621,-1.094831 0.267646,-1.643325 -0.512314,-0.55349 -1.024151,-1.106443 -1.536461,-1.659886 0.57454,0.413192 1.148839,0.826212 1.723033,1.239136 0.02023,0.882306 0.04033,1.764416 0.06029,2.646386 -1.579705,0.534331 -3.159483,1.068449 -4.739543,1.602421 -1.921561,-0.27575 -3.842884,-0.551693 -5.765074,-0.827987 -1.508199,-0.382658 -3.015526,-0.765293 -4.52484,-1.148629 -0.218504,-0.679593 -0.436933,-1.358393 -0.655972,-2.038534 0.51008,0.594088 1.019493,1.187443 1.528627,1.780515 1.209149,0.310414 2.41847,0.620674 3.627681,0.93071 z"
           inkscape:path-effect="#path-effect317-8-2"
           transform="matrix(-1,0,0,1,49.845496,-5.8655616)" /></g><g
         id="g14440"><path
           style="fill:#19aeff;fill-opacity:1;stroke:url(#linearGradient13337);stroke-width:0.178367px;stroke-linecap:butt;stroke-linejoin:miter;stroke-opacity:1"
           d="m 21.445723,18.293648 c 0.869276,0.418008 1.941804,1.520011 3.018078,2.227708 1.076274,0.707698 2.156016,1.021006 3.217589,1.136458 1.061573,0.115452 2.104909,0.03311 3.050712,-0.1363 0.945802,-0.169408 1.794022,-0.425838 2.23637,-0.778614 0.442347,-0.352776 0.478903,-0.802059 0.256525,-1.342992 -0.222378,-0.540933 -0.703827,-1.173499 -0.558042,-1.247748 0.145784,-0.07425 0.918736,0.409901 1.315167,1.093072 0.396431,0.683171 0.416527,1.565281 -0.363307,2.27332 -0.779835,0.708039 -2.359624,1.24216 -4.110396,1.362939 -1.750773,0.120779 -3.672391,-0.17186 -5.39552,-0.501712 -1.723129,-0.329851 -3.246597,-0.696661 -4.063487,-1.165755 -0.816889,-0.469093 -0.925114,-1.039687 -0.941419,-1.524535 -0.01631,-0.484848 0.05953,-0.883003 0.430615,-1.215246 0.371082,-0.332242 1.037838,-0.598604 1.907115,-0.180595 z"
           id="path7789"
           sodipodi:nodetypes="ccccccccccccccc"
           inkscape:original-d="m 21.242411,17.609592 c 1.072593,1.10206 2.145121,2.204062 3.217649,3.306074 1.079981,0.313505 2.159723,0.626814 3.239348,0.939961 1.043569,-0.08218 2.086906,-0.164514 3.130115,-0.247041 0.848446,-0.256266 1.696666,-0.512696 2.544752,-0.76932 0.03674,-0.449126 0.07334,-0.898405 0.10967,-1.347886 -0.481302,-0.632424 -0.962751,-1.264989 -1.444401,-1.897771 0.773165,0.48435 1.546116,0.968501 2.318908,1.452482 0.02023,0.882309 0.04033,1.764419 0.06029,2.646388 -1.579688,0.53433 -3.159478,1.068448 -4.739539,1.602421 -1.92158,-0.292479 -3.843198,-0.585119 -5.765103,-0.877955 -1.524391,-0.366765 -3.047859,-0.733575 -4.573297,-1.101126 -0.108005,-0.57094 -0.216229,-1.141534 -0.324932,-1.713142 0.07622,-0.397959 0.152061,-0.796114 0.227523,-1.194497 0.666466,-0.265754 1.333222,-0.532116 1.999017,-0.798588 z"
           inkscape:path-effect="#path-effect7791" /><path
           style="opacity:0.4;fill:#005c94;fill-opacity:1;stroke:none;stroke-width:0.178367px;stroke-linecap:butt;stroke-linejoin:miter;stroke-opacity:1;filter:url(#filter14153-6-0)"
           d="m 24.051166,22.072658 c 1.345111,0.264621 2.825089,0.483483 4.177304,0.511191 1.352216,0.02771 2.575706,-0.135705 3.504599,-0.392006 0.928893,-0.2563 1.562695,-0.605273 1.924329,-1.053677 0.361635,-0.448404 0.450756,-0.995595 0.239255,-1.546557 -0.2115,-0.550963 -0.723337,-1.103916 -0.692215,-1.174049 0.03112,-0.07013 0.605424,0.342883 0.902569,0.990504 0.297144,0.647621 0.31724,1.529731 -0.462602,2.237773 -0.779842,0.708042 -2.359621,1.242159 -4.110379,1.371266 -1.750758,0.129108 -3.672081,-0.146835 -5.387268,-0.476293 -1.715187,-0.329458 -3.222514,-0.712092 -4.086528,-1.243438 -0.864014,-0.531346 -1.082442,-1.210146 -0.936851,-1.253189 0.145591,-0.04304 0.655004,0.550311 1.51418,1.001952 0.859176,0.451642 2.068496,0.761903 3.413607,1.026523 z"
           id="path307-8-0-9"
           sodipodi:nodetypes="cccccccccccccc"
           inkscape:original-d="m 23.915219,22.118258 c 1.481025,0.219242 2.961003,0.438104 4.441361,0.656796 1.224145,-0.163201 2.447635,-0.326615 3.671222,-0.490342 0.634333,-0.348855 1.268135,-0.697827 1.90203,-1.047261 0.0895,-0.54764 0.178621,-1.094831 0.267646,-1.643325 -0.512314,-0.55349 -1.024151,-1.106443 -1.536461,-1.659886 0.57454,0.413192 1.148839,0.826212 1.723033,1.239136 0.02023,0.882306 0.04033,1.764416 0.06029,2.646386 -1.579705,0.534331 -3.159483,1.068449 -4.739543,1.602421 -1.921561,-0.27575 -3.842884,-0.551693 -5.765074,-0.827987 -1.508199,-0.382658 -3.015526,-0.765293 -4.52484,-1.148629 -0.218504,-0.679593 -0.436933,-1.358393 -0.655972,-2.038534 0.51008,0.594088 1.019493,1.187443 1.528627,1.780515 1.209149,0.310414 2.41847,0.620674 3.627681,0.93071 z"
           inkscape:path-effect="#path-effect317-8-2-9" /><path
           id="path14360"
           style="opacity:0.5;fill:#ffffff;stroke-width:0.571376;stroke-linecap:round;filter:url(#filter14363)"
           d="m 21.7072,18.478839 c 0.487116,0.78482 -0.599017,0.06682 -1.317514,0.51277 -0.718498,0.445953 -0.797278,1.886984 -1.284395,1.102163 -0.487116,-0.784819 -0.299549,-1.782556 0.418953,-2.228509 0.718496,-0.44595 1.69584,-0.171243 2.182956,0.613576 z"
           sodipodi:nodetypes="sssss" /></g></g></g></svg>
