<?xml version="1.0" encoding="UTF-8" standalone="no"?>
<!-- Created with Inkscape (http://www.inkscape.org/) -->

<svg
   width="210mm"
   height="297mm"
   viewBox="0 0 210 297"
   version="1.1"
   id="svg417"
   inkscape:version="1.2.2 (732a01da63, 2022-12-09, custom)"
   sodipodi:docname="v1.svg"
   xmlns:inkscape="http://www.inkscape.org/namespaces/inkscape"
   xmlns:sodipodi="http://sodipodi.sourceforge.net/DTD/sodipodi-0.dtd"
   xmlns="http://www.w3.org/2000/svg"
   xmlns:svg="http://www.w3.org/2000/svg">
  <sodipodi:namedview
     id="namedview419"
     pagecolor="#ffffff"
     bordercolor="#000000"
     borderopacity="0.25"
     inkscape:showpageshadow="2"
     inkscape:pageopacity="0.0"
     inkscape:pagecheckerboard="0"
     inkscape:deskcolor="#d1d1d1"
     inkscape:document-units="mm"
     showgrid="false"
     inkscape:zoom="0.70199214"
     inkscape:cx="397.44035"
     inkscape:cy="561.9721"
     inkscape:window-width="1846"
     inkscape:window-height="1016"
     inkscape:window-x="0"
     inkscape:window-y="0"
     inkscape:window-maximized="1"
     inkscape:current-layer="layer1" />
  <defs
     id="defs414" />
  <g
     inkscape:label="Layer 1"
     inkscape:groupmode="layer"
     id="layer1">
    <rect
       style="fill:#b3b3b3;fill-opacity:1;stroke:none;stroke-width:0.489882;stroke-dasharray:none"
       id="rect4813"
       width="86.298073"
       height="22.484011"
       x="105.06556"
       y="57.331226"
       rx="0.16339442"
       ry="0.11198098"
       inkscape:export-filename="../d9a751bf/sslogo2.png"
       inkscape:export-xdpi="150"
       inkscape:export-ydpi="150" />
    <rect
       style="fill:#aaccff;fill-opacity:1;stroke:#000000;stroke-width:0.21345"
       id="rect4815"
       width="182.88701"
       height="155.11266"
       x="13.49264"
       y="83.589531"
       rx="0.16339442"
       ry="0.11198098" />
    <path
       style="fill:#000000;fill-opacity:1;stroke-width:22.1853"
       d="M 22.196263,46.210193 H 187.92005 c 9.45092,0 17.19357,7.676095 17.19357,17.104825 V 234.80699 c 0,9.45092 -7.74259,17.10484 -17.19357,17.10484 H 22.218446 c -9.406546,0 -17.1048253,-7.6761 -17.1048253,-17.10484 V 63.315018 c 0,-9.428787 7.6760953,-17.104825 17.0826423,-17.104825 z M 123.11695,59.077639 c -4.76977,0 -8.51914,3.81586 -8.51914,8.585643 0,4.76988 3.74937,8.58574 8.51914,8.58574 4.72551,0 8.58575,-3.81586 8.58575,-8.58574 0,-4.769783 -3.86024,-8.585643 -8.58575,-8.585643 z m 26.24514,0 c -4.76976,0 -8.58563,3.81586 -8.58563,8.585643 0,4.76988 3.81587,8.58574 8.58563,8.58574 4.70329,0 8.58575,-3.81586 8.58575,-8.58574 0,-4.769783 -3.88235,-8.585643 -8.58575,-8.585643 z m 25.7127,0 c -4.68114,0 -8.54137,3.81586 -8.54137,8.585643 0,4.76988 3.86023,8.58574 8.54137,8.58574 4.72542,0 8.56352,-3.81586 8.56352,-8.58574 0,-4.769783 -3.86025,-8.585643 -8.56352,-8.585643 z M 22.196263,234.82919 H 187.92005 V 89.271769 H 22.218446 V 234.82919 Z"
       id="path4817"
       sodipodi:nodetypes="sssssssssssssssssssssssscccccc" />
    <path
       style="fill:#800000;fill-opacity:1;stroke:none;stroke-width:0.489882;stroke-dasharray:none"
       d="m 63.470481,152.82746 c -1.545749,-1.07357 -3.388627,-1.81296 -4.838121,-3.23112 -1.737815,-1.70027 -4.571862,-1.91605 -6.924749,-2.80149 l 4.008482,-0.0167 -2.358054,-2.25943 c 2.129533,1.02443 4.212265,1.26365 6.389455,3.08758 1.369048,1.45883 3.270099,1.70642 4.973745,2.40347 z"
       id="path4957"
       sodipodi:nodetypes="cscccccc"
       inkscape:export-filename="../d9a751bf/sslogo2.png"
       inkscape:export-xdpi="150"
       inkscape:export-ydpi="150" />
    <g
       id="g4857"
       transform="matrix(1.0800405,0,0,1.0800405,6.973024,-5.969634)">
      <rect
         style="fill:#ffd43b;fill-opacity:1;stroke:#000000;stroke-width:0.219572"
         id="rect4819"
         width="69.720474"
         height="57.451069"
         x="54.866772"
         y="145.32494"
         rx="0.19608748"
         ry="0.14048837" />
      <path
         d="m 89.613895,164.71535 c -20.065563,0 -36.349229,-5.46642 -36.349229,-12.12191 v -5.9949 -5.97838 c 0,-6.65549 16.283666,-12.12192 36.349229,-12.12192 20.065565,0 36.349235,5.46642 36.349235,12.12192 v 5.99489 5.9949 c 0,6.63898 -16.28367,12.1054 -36.349235,12.1054 z"
         id="path4821"
         style="stroke-width:0.165149" />
      <path
         d="m 89.613895,134.36102 c -13.426592,0 -24.22732,2.74147 -24.22732,5.9949 0,3.25342 10.817243,5.99489 24.22732,5.99489 13.410075,0 24.227315,-2.74146 24.227315,-5.99489 0,-3.25344 -10.80073,-5.9949 -24.227315,-5.9949 z"
         id="path4823"
         style="fill:#ffd43b;fill-opacity:1;stroke-width:0.165149" />
      <path
         d="m 89.613895,188.82706 c -20.065563,0 -36.349229,-5.46642 -36.349229,-12.12191 v -12.12192 c 0,-0.64406 0.264257,-1.30467 0.52852,-1.81663 l 0.776192,-1.17256 c 4.046114,5.2187 18.116805,9.11621 35.044552,9.11621 16.92774,0 31.01493,-3.91402 35.04456,-9.11621 l 0.77619,1.17256 c 0.26426,0.64406 0.52852,1.30468 0.52852,1.81663 v 12.12192 c 0,6.77109 -16.28366,12.12191 -36.349305,12.12191 z"
         id="path4825"
         style="stroke-width:0.165149" />
      <path
         d="m 89.613895,213.05438 c -20.065563,0 -36.349229,-5.46642 -36.349229,-12.12192 v -12.12191 c 0,-1.04044 0.52852,-2.08088 1.304712,-2.9892 4.046114,5.21871 18.116805,9.11621 35.044552,9.11621 16.92774,0 31.01493,-3.91402 35.04456,-9.11621 0.77619,0.90832 1.30471,1.94876 1.30471,2.9892 v 12.12191 c 0,6.6555 -16.28366,12.12192 -36.349229,12.12192 z"
         id="path4827"
         style="stroke-width:0.165149" />
      <path
         style="fill:#0277bd;fill-opacity:1;stroke:none;stroke-width:0.992628px;stroke-linecap:butt;stroke-linejoin:miter;stroke-opacity:1"
         d="m 124.73608,156.39024 c -4.24848,1.59824 -11.57271,2.84501 -19.56662,3.26908 -9.894101,0.52486 -20.810459,-0.21065 -29.056344,-0.78202 -8.245886,-0.57137 -13.818791,-0.97842 -17.290447,-2.55275 -3.471656,-1.57434 -4.841172,-4.31685 -5.854923,-6.70001 -1.013751,-2.38315 -1.670497,-4.40385 0.544928,-5.82923 2.215425,-1.42537 7.301612,-2.253 11.607791,-1.05906 4.306178,1.19393 7.831825,4.40834 12.783983,6.17497 4.952157,1.76663 11.328338,2.08611 17.289269,2.08623 5.960933,1.2e-4 11.501373,-0.31913 16.482943,-0.6625 4.98156,-0.34338 9.40133,-0.71068 11.67417,-1.10262 2.27284,-0.39193 2.39917,-0.80859 3.61675,0.24296 3.3039,3.07537 1.66515,5.84055 -2.29793,7.4103"
         id="path4829"
         sodipodi:nodetypes="ccccccccccccc" />
      <circle
         style="fill:#00ff00;fill-opacity:1;stroke:none;stroke-width:7.50333;stroke-dasharray:none;stroke-opacity:1"
         id="circle4831"
         cx="61.108589"
         cy="145.38297"
         r="0.9379158" />
      <circle
         style="fill:#00ff00;fill-opacity:1;stroke:none;stroke-width:7.50333;stroke-dasharray:none;stroke-opacity:1"
         id="circle4833"
         cx="58.086853"
         cy="151.42644"
         r="0.9379158" />
      <path
         style="fill:#0277bd;fill-opacity:1;stroke:#646464;stroke-width:0.0375167;stroke-linecap:butt;stroke-linejoin:miter;stroke-dasharray:none;stroke-opacity:1"
         d="m 119.22417,175.56317 c -2.89131,0.76731 -7.48734,1.82975 -13.46784,2.52375 -5.980498,0.694 -13.336892,1.01848 -19.827682,1.04034 -6.490789,0.0219 -12.107609,-0.25896 -16.82334,-1.25538 -4.715732,-0.99643 -8.52601,-2.70797 -11.098063,-4.57284 -2.572053,-1.86486 -3.906331,-3.88346 -3.930207,-6.4207 -0.02388,-2.53725 1.263709,-5.59287 0.452357,-6.00608 -0.811353,-0.41321 -3.72109,1.81643 -5.231612,5.38607 -1.510522,3.56964 -1.622435,8.47867 2.717408,12.41897 4.339844,3.9403 13.131489,6.91272 23.024098,7.98709 9.892609,1.07437 20.885578,0.25027 30.335251,-0.99377 8.37868,-1.10304 15.36886,-2.48643 19.34205,-4.12247 0,0 0.0109,0.38119 0.009,0.38335 3.54483,-1.331 4.19758,-5.10879 3.17241,-6.31689 -1.02517,-1.2081 -2.22087,-1.48434 -3.41072,-1.38698 -1.18984,0.0974 -2.37159,0.56822 -5.2629,1.33554 z"
         id="path4835"
         sodipodi:nodetypes="ccccccccccccccccc" />
      <path
         style="fill:#0277bd;fill-opacity:1;stroke:none;stroke-width:0.992626px;stroke-linecap:butt;stroke-linejoin:miter;stroke-opacity:1"
         d="m 76.590488,199.77987 c 6.615094,2.21566 11.905791,4.10171 17.813539,4.74421 5.907753,0.6425 11.713993,0.18425 16.977473,-0.75852 18.97204,-3.70685 29.48904,-16.02507 30.68336,-32.71866 0.0169,-2.1892 0.21718,-1.65379 0.61207,0.0192 4.90076,20.88383 -15.62349,38.11656 -38.1048,40.2678 -9.743104,0.67215 -20.437063,-0.95642 -29.09927,-3.39894 -8.662208,-2.44252 -18.045388,-8.46833 -22.425828,-11.70122 -4.535407,-2.398 -2.952076,-12.36207 1.675537,-10.29744 -0.430011,0.52928 -0.429392,1.10036 -0.142387,1.34952 3.868275,2.62753 15.837586,10.42651 22.010306,12.494 z"
         id="path4841"
         sodipodi:nodetypes="cccccccccccc" />
      <path
         id="path4851"
         style="fill:#ffffff;stroke:#000000;stroke-width:0.264583"
         d="M 23.926333,95.614561 H 157.16428 c 0.1108,0 0.2,0.0892 0.2,0.2 v 27.812729 c 0,0.1108 -0.0892,0.2 -0.2,0.2 H 99.074016 c -5.964743,0.75475 -6.740926,6.90555 -8.63657,14.28379 -1.873729,-7.32721 -3.321871,-13.77542 -8.696017,-14.28379 H 23.926333 c -0.1108,0 -0.2,-0.0892 -0.2,-0.2 V 95.814561 c 0,-0.1108 0.0892,-0.2 0.2,-0.2 z"
         sodipodi:nodetypes="ssssscccssss" />
      <text
         xml:space="preserve"
         style="font-style:normal;font-variant:normal;font-weight:normal;font-stretch:normal;font-size:14.3863px;font-family:monospace;-inkscape-font-specification:monospace;fill:#00112b;fill-opacity:1;stroke:#000000;stroke-width:1.19886"
         x="33.586071"
         y="113.31018"
         id="text4855"><tspan
           sodipodi:role="line"
           id="tspan4853"
           style="font-style:normal;font-variant:normal;font-weight:normal;font-stretch:normal;font-family:monospace;-inkscape-font-specification:monospace;stroke-width:1.19886"
           x="33.586071"
           y="113.31018">{pysimplesql}</tspan></text>
    </g>
    <rect
       style="fill:none;fill-opacity:1;stroke:#000000;stroke-width:0.489881;stroke-dasharray:none"
       id="rect4859"
       width="8.1189671"
       height="8.1189671"
       x="145.07718"
       y="63.732174"
       rx="0.11743433"
       ry="0.084136717" />
    <path
       style="fill:none;fill-opacity:1;stroke:#000000;stroke-width:0.489882;stroke-dasharray:none"
       d="m 119.12018,67.974952 h 8.06389"
       id="path4861" />
    <path
       style="fill:none;fill-opacity:1;stroke:#000000;stroke-width:0.489882;stroke-dasharray:none"
       d="m 170.83635,71.902653 8.38024,-8.380252"
       id="path4863" />
    <path
       style="fill:none;fill-opacity:1;stroke:#000000;stroke-width:0.489882;stroke-dasharray:none"
       d="m 179.21659,71.902653 -8.38024,-8.380252"
       id="path4865" />
  </g>
</svg>
