<?xml version="1.0" encoding="UTF-8" standalone="no"?>
<!-- Created with Inkscape (http://www.inkscape.org/) -->

<svg
   width="210mm"
   height="297mm"
   viewBox="0 0 210 297"
   version="1.1"
   id="svg806"
   inkscape:version="1.2.2 (732a01da63, 2022-12-09, custom)"
   sodipodi:docname="v2.svg"
   xmlns:inkscape="http://www.inkscape.org/namespaces/inkscape"
   xmlns:sodipodi="http://sodipodi.sourceforge.net/DTD/sodipodi-0.dtd"
   xmlns="http://www.w3.org/2000/svg"
   xmlns:svg="http://www.w3.org/2000/svg">
  <sodipodi:namedview
     id="namedview808"
     pagecolor="#ffffff"
     bordercolor="#000000"
     borderopacity="0.25"
     inkscape:showpageshadow="2"
     inkscape:pageopacity="0.0"
     inkscape:pagecheckerboard="0"
     inkscape:deskcolor="#d1d1d1"
     inkscape:document-units="mm"
     showgrid="false"
     inkscape:zoom="0.70199214"
     inkscape:cx="397.44035"
     inkscape:cy="561.9721"
     inkscape:window-width="1846"
     inkscape:window-height="1016"
     inkscape:window-x="0"
     inkscape:window-y="0"
     inkscape:window-maximized="1"
     inkscape:current-layer="g3475" />
  <defs
     id="defs803">
    <inkscape:path-effect
       effect="bspline"
       id="path-effect7791"
       is_visible="true"
       lpeversion="1"
       weight="33.333333"
       steps="2"
       helper_size="0"
       apply_no_weight="true"
       apply_with_weight="true"
       only_selected="false" />
    <inkscape:path-effect
       effect="bspline"
       id="path-effect7791-7"
       is_visible="true"
       lpeversion="1"
       weight="33.333333"
       steps="2"
       helper_size="0"
       apply_no_weight="true"
       apply_with_weight="true"
       only_selected="false" />
    <inkscape:path-effect
       effect="bspline"
       id="path-effect317"
       is_visible="true"
       lpeversion="1"
       weight="33.333333"
       steps="2"
       helper_size="0"
       apply_no_weight="true"
       apply_with_weight="true"
       only_selected="false" />
  </defs>
  <g
     inkscape:label="Layer 1"
     inkscape:groupmode="layer"
     id="layer1">
    <rect
       style="fill:#b3b3b3;fill-opacity:1;stroke:none;stroke-width:0.489883;stroke-dasharray:none"
       id="rect4583"
       width="86.298073"
       height="22.484011"
       x="105.15245"
       y="45.47485"
       rx="0.16339442"
       ry="0.11198099"
       inkscape:export-filename="../dbb862ce/sslogo.png"
       inkscape:export-xdpi="150"
       inkscape:export-ydpi="150" />
    <rect
       style="fill:#aaccff;fill-opacity:1;stroke:#000000;stroke-width:0.21345"
       id="rect3302"
       width="182.88702"
       height="155.11267"
       x="13.579515"
       y="71.733246"
       rx="0.16339442"
       ry="0.11198099" />
    <path
       style="fill:#000000;fill-opacity:1;stroke-width:22.1853"
       d="M 22.283133,34.353714 H 188.00693 c 9.45091,0 17.19356,7.676093 17.19356,17.104818 V 222.95049 c 0,9.45091 -7.74259,17.10484 -17.19356,17.10484 H 22.305316 c -9.406546,0 -17.1048254,-7.6761 -17.1048254,-17.10484 V 51.458532 c 0,-9.428784 7.6760954,-17.104818 17.0826424,-17.104818 z M 123.20382,47.221157 c -4.76977,0 -8.51914,3.815858 -8.51914,8.585634 0,4.76988 3.74937,8.585738 8.51914,8.585738 4.72551,0 8.58575,-3.815858 8.58575,-8.585738 0,-4.769776 -3.86024,-8.585634 -8.58575,-8.585634 z m 26.24515,0 c -4.76977,0 -8.58564,3.815858 -8.58564,8.585634 0,4.76988 3.81587,8.585738 8.58564,8.585738 4.70328,0 8.58575,-3.815858 8.58575,-8.585738 0,-4.769776 -3.88236,-8.585634 -8.58575,-8.585634 z m 25.71269,0 c -4.68114,0 -8.54137,3.815858 -8.54137,8.585634 0,4.76988 3.86023,8.585738 8.54137,8.585738 4.72542,0 8.56352,-3.815858 8.56352,-8.585738 0,-4.769776 -3.86024,-8.585634 -8.56352,-8.585634 z M 22.283133,222.97268 H 188.00693 V 77.415271 H 22.305316 V 222.97268 Z"
       id="path2501"
       sodipodi:nodetypes="sssssssssssssssssssssssscccccc" />
    <g
       id="g3475"
       transform="matrix(1.0800405,0,0,1.0800405,7.0598938,-17.826082)">
      <rect
         style="fill:#ffd43b;fill-opacity:1;stroke:#000000;stroke-width:0.219572"
         id="rect1710"
         width="69.720474"
         height="57.451069"
         x="54.866772"
         y="145.32494"
         rx="0.19608748"
         ry="0.14048837" />
      <path
         d="m 89.613895,164.71535 c -20.065563,0 -36.349229,-5.46642 -36.349229,-12.12191 v -5.9949 -5.97838 c 0,-6.65549 16.283666,-12.12192 36.349229,-12.12192 20.065565,0 36.349235,5.46642 36.349235,12.12192 v 5.99489 5.9949 c 0,6.63898 -16.28367,12.1054 -36.349235,12.1054 z"
         id="path457"
         style="stroke-width:0.165149" />
      <path
         d="m 89.613895,134.36102 c -13.426592,0 -24.22732,2.74147 -24.22732,5.9949 0,3.25342 10.817243,5.99489 24.22732,5.99489 13.410075,0 24.227315,-2.74146 24.227315,-5.99489 0,-3.25344 -10.80073,-5.9949 -24.227315,-5.9949 z"
         id="path459"
         style="fill:#ffd43b;fill-opacity:1;stroke-width:0.165149" />
      <path
         d="m 89.613895,188.82706 c -20.065563,0 -36.349229,-5.46642 -36.349229,-12.12191 v -12.12192 c 0,-0.64406 0.264257,-1.30467 0.52852,-1.81663 l 0.776192,-1.17256 c 4.046114,5.2187 18.116805,9.11621 35.044552,9.11621 16.92774,0 31.01493,-3.91402 35.04456,-9.11621 l 0.77619,1.17256 c 0.26426,0.64406 0.52852,1.30468 0.52852,1.81663 v 12.12192 c 0,6.77109 -16.28366,12.12191 -36.349305,12.12191 z"
         id="path455"
         style="stroke-width:0.165149" />
      <path
         d="m 89.613895,213.05438 c -20.065563,0 -36.349229,-5.46642 -36.349229,-12.12192 v -12.12191 c 0,-1.04044 0.52852,-2.08088 1.304712,-2.9892 4.046114,5.21871 18.116805,9.11621 35.044552,9.11621 16.92774,0 31.01493,-3.91402 35.04456,-9.11621 0.77619,0.90832 1.30471,1.94876 1.30471,2.9892 v 12.12191 c 0,6.6555 -16.28366,12.12192 -36.349229,12.12192 z"
         id="XMLID_7_-4"
         style="stroke-width:0.165149" />
      <path
         style="fill:#0277bd;fill-opacity:1;stroke:none;stroke-width:0.992628px;stroke-linecap:butt;stroke-linejoin:miter;stroke-opacity:1"
         d="m 65.817164,142.58621 c 3.609479,1.34397 7.135126,4.55838 11.902695,7.0372 4.767569,2.47881 10.776418,4.2224 16.684168,4.8649 5.907753,0.6425 11.713993,0.18425 16.977473,-0.75852 5.26349,-0.94277 9.98389,-2.36982 12.44565,-4.33306 2.46175,-1.96323 2.66527,-4.4635 1.42777,-7.47385 -1.23749,-3.01034 -3.91679,-6.53063 -3.1055,-6.94384 0.8113,-0.4132 5.11285,2.28114 7.31905,6.08305 2.20621,3.8019 2.31812,8.71092 -2.02171,12.65122 -4.33984,3.94031 -13.13149,6.91273 -22.8746,7.58488 -9.743104,0.67215 -20.437064,-0.95643 -28.570997,-1.97434 -8.133933,-1.01792 -13.706838,-1.42497 -17.02135,-3.05243 -3.314511,-1.62747 -4.369621,-4.47627 -4.686469,-7.0089 -0.316848,-2.53264 0.105206,-4.74842 2.163251,-6.12057 2.058045,-1.37215 5.75109,-1.89972 9.360569,-0.55574 z"
         id="path7789"
         inkscape:path-effect="#path-effect7791"
         inkscape:original-d="m 65.899894,140.71477 c 3.526707,3.21546 7.052355,6.42987 10.57715,9.64342 6.010196,1.74468 12.019045,3.48827 18.027252,5.23097 5.807564,-0.45729 11.613804,-0.91554 17.419384,-1.37481 4.72167,-1.42614 9.44207,-2.8532 14.16176,-4.28133 0.20453,-2.49943 0.40805,-4.9997 0.61059,-7.50111 -2.67845,-3.51949 -5.35775,-7.03977 -8.03819,-10.56125 4.30271,2.69544 8.60426,5.38979 12.9049,8.08319 0.11291,4.91012 0.22483,9.81914 0.33575,14.72737 -8.79117,2.97359 -17.58282,5.94601 -26.37597,8.91761 -10.69359,-1.62767 -21.38755,-3.25624 -32.08312,-4.8859 -5.572237,-0.40608 -11.145142,-0.81313 -16.719367,-1.2212 -1.054182,-2.84798 -2.109292,-5.69678 -3.16546,-8.54675 0.423064,-2.21488 0.845118,-4.43066 1.266187,-6.64748 3.694038,-0.52659 7.387084,-1.05416 11.079134,-1.58273 z"
         sodipodi:nodetypes="ccccccccccccccc" />
      <circle
         style="fill:#ffffff;fill-opacity:1;stroke:none;stroke-width:7.50333;stroke-dasharray:none;stroke-opacity:1"
         id="path8009"
         cx="61.108589"
         cy="145.38297"
         r="0.9379158" />
      <circle
         style="fill:#ffffff;fill-opacity:1;stroke:none;stroke-width:7.50333;stroke-dasharray:none;stroke-opacity:1"
         id="path8009-6"
         cx="58.086853"
         cy="151.42644"
         r="0.9379158" />
      <path
         style="fill:#0277bd;fill-opacity:1;stroke:#646464;stroke-width:0.0375167;stroke-linecap:butt;stroke-linejoin:miter;stroke-dasharray:none;stroke-opacity:1"
         d="m 113.64478,167.55019 c -3.60948,1.34398 -7.13513,4.55839 -11.9027,7.0372 -4.767562,2.47882 -10.776414,4.22241 -16.684159,4.86491 -5.907745,0.6425 -11.713993,0.18425 -16.977477,-0.75852 -5.263484,-0.94277 -9.983894,-2.36982 -12.445646,-4.33306 -2.461752,-1.96323 -2.665273,-4.4635 -2.177677,-7.17632 0.487596,-2.71283 1.666724,-5.63798 0.855367,-6.05118 -0.811357,-0.41319 -3.612625,1.68594 -5.068926,5.19035 -1.456301,3.5044 -1.568214,8.41343 2.771629,12.35373 4.339844,3.9403 13.131489,6.91272 22.874593,7.58487 9.743103,0.67215 20.437061,-0.95642 28.570996,-1.97434 8.13393,-1.01791 13.70684,-1.42496 17.02136,-3.05242 3.31451,-1.62747 4.36962,-4.47627 4.68647,-7.00891 0.31684,-2.53263 -0.10522,-4.74842 -2.16326,-6.12057 -2.05804,-1.37214 -5.75108,-1.89972 -9.36057,-0.55574 z"
         id="path7789-2"
         inkscape:path-effect="#path-effect7791-7"
         inkscape:original-d="m 113.56205,165.67875 c -3.5267,3.21547 -7.05235,6.42988 -10.57715,9.64342 -6.010192,1.74469 -12.019045,3.48828 -18.027254,5.23098 -5.807554,-0.45729 -11.613802,-0.91554 -17.419374,-1.37481 -4.721668,-1.42615 -9.44208,-2.8532 -14.161766,-4.28133 -0.20452,-2.49943 -0.40805,-4.9997 -0.610588,-7.50111 1.17898,-2.92426 2.358109,-5.84941 3.537518,-8.77578 -2.802177,2.10008 -5.603446,4.19921 -8.404236,6.29772 -0.112895,4.91011 -0.224817,9.81914 -0.335747,14.72736 8.79118,2.97359 17.582822,5.94602 26.375983,8.91762 10.693577,-1.62767 21.387534,-3.25625 32.083114,-4.88591 5.57223,-0.40608 11.14514,-0.81312 16.71937,-1.22119 1.05418,-2.84798 2.10928,-5.69679 3.16546,-8.54676 -0.42307,-2.21487 -0.84512,-4.43066 -1.2662,-6.64748 -3.69403,-0.52658 -7.38707,-1.05416 -11.07913,-1.58273 z"
         sodipodi:nodetypes="ccccccccccccccc" />
      <circle
         style="fill:#0277bd;fill-opacity:1;stroke:none;stroke-width:7.50333;stroke-dasharray:none;stroke-opacity:1"
         id="path8009-2"
         cx="-118.35336"
         cy="170.34695"
         r="0.9379158"
         transform="scale(-1,1)" />
      <circle
         style="fill:#0277bd;fill-opacity:1;stroke:none;stroke-width:7.50333;stroke-dasharray:none;stroke-opacity:1"
         id="path8009-6-8"
         cx="-121.37511"
         cy="176.39041"
         r="0.9379158"
         transform="scale(-1,1)" />
      <path
         style="fill:#0277bd;fill-opacity:1;stroke:none;stroke-width:0.992626px;stroke-linecap:butt;stroke-linejoin:miter;stroke-opacity:1"
         d="m 65.817164,192.62197 c 3.609478,1.34398 7.13513,4.55839 11.902696,7.0372 4.767567,2.47882 10.776419,4.22241 16.684167,4.86491 5.907753,0.6425 11.713993,0.18425 16.977473,-0.75852 5.26349,-0.94277 9.98389,-2.36982 12.37365,-4.32304 2.38977,-1.95321 2.44926,-4.43345 1.76383,-7.24686 -0.68543,-2.81341 -2.11455,-5.95617 -1.23112,-6.37934 0.88343,-0.42318 4.07951,1.87531 5.73316,5.47937 1.65366,3.60406 1.76557,8.51309 -2.57426,12.45339 -4.33984,3.94031 -13.13149,6.91273 -22.8746,7.58487 -9.743104,0.67215 -20.437063,-0.95642 -28.570998,-1.97434 -8.133935,-1.01791 -13.70684,-1.42496 -17.021349,-3.05242 -3.31451,-1.62747 -4.369624,-4.47628 -4.686469,-7.00891 -0.316845,-2.53263 0.105208,-4.74841 2.163253,-6.12056 2.058044,-1.37215 5.751089,-1.89972 9.360567,-0.55575 z"
         id="path307"
         inkscape:path-effect="#path-effect317"
         inkscape:original-d="m 65.899891,190.75054 c 3.526707,3.21546 7.052359,6.42987 10.577153,9.64341 6.010193,1.74469 12.019046,3.48828 18.027251,5.23098 5.807565,-0.45729 11.613805,-0.91554 17.419385,-1.37481 4.72167,-1.42614 9.44207,-2.8532 14.16176,-4.28133 0.0596,-2.47948 0.11913,-4.95972 0.17849,-7.44102 -1.43031,-3.14555 -2.85943,-6.28831 -4.28999,-9.43404 3.19733,2.29944 6.39341,4.59793 9.5888,6.89589 0.11291,4.91011 0.22482,9.81914 0.33575,14.72737 -8.79117,2.97359 -17.58282,5.94601 -26.37597,8.91761 -10.69359,-1.62767 -21.387548,-3.25625 -32.083122,-4.88591 -5.572238,-0.40607 -11.145143,-0.81312 -16.719365,-1.22119 -1.05418,-2.84798 -2.109294,-5.69679 -3.165458,-8.54675 0.423058,-2.21488 0.845113,-4.43066 1.266188,-6.64748 3.694036,-0.52659 7.387081,-1.05417 11.079128,-1.58273 z"
         sodipodi:nodetypes="ccccccccccccccc" />
      <circle
         style="fill:#ffffff;fill-opacity:1;stroke:none;stroke-width:7.50331;stroke-dasharray:none;stroke-opacity:1"
         id="circle309"
         cx="61.108593"
         cy="195.41873"
         r="0.9379158" />
      <circle
         style="fill:#ffffff;fill-opacity:1;stroke:none;stroke-width:7.50331;stroke-dasharray:none;stroke-opacity:1"
         id="circle311"
         cx="58.086853"
         cy="201.4622"
         r="0.9379158" />
      <ellipse
         style="fill:#ffffff;fill-opacity:1;stroke:none;stroke-width:8.12437;stroke-dasharray:none;stroke-opacity:1"
         id="circle2816"
         cx="-117.81104"
         cy="170.18495"
         transform="scale(-1,1)"
         rx="1.0996044"
         ry="0.9379158" />
      <ellipse
         style="fill:#ffffff;fill-opacity:1;stroke:none;stroke-width:8.12437;stroke-dasharray:none;stroke-opacity:1"
         id="circle2818"
         cx="-121.3537"
         cy="176.22842"
         transform="scale(-1,1)"
         rx="1.0996044"
         ry="0.9379158" />
      <path
         id="rect1655"
         style="fill:#ffffff;stroke:#000000;stroke-width:0.264583"
         d="M 23.926333,95.614561 H 157.16428 c 0.1108,0 0.2,0.0892 0.2,0.2 v 27.812729 c 0,0.1108 -0.0892,0.2 -0.2,0.2 H 99.074016 c -5.964743,0.75475 -6.740926,6.90555 -8.63657,14.28379 -1.873729,-7.32721 -3.321871,-13.77542 -8.696017,-14.28379 H 23.926333 c -0.1108,0 -0.2,-0.0892 -0.2,-0.2 V 95.814561 c 0,-0.1108 0.0892,-0.2 0.2,-0.2 z"
         sodipodi:nodetypes="ssssscccssss" />
      <text
         xml:space="preserve"
         style="font-style:normal;font-variant:normal;font-weight:normal;font-stretch:normal;font-size:14.3863px;font-family:monospace;-inkscape-font-specification:monospace;fill:#00112b;fill-opacity:1;stroke:#000000;stroke-width:1.19886"
         x="33.586071"
         y="113.31018"
         id="text3396"><tspan
           sodipodi:role="line"
           id="tspan3394"
           style="font-style:normal;font-variant:normal;font-weight:normal;font-stretch:normal;font-family:monospace;-inkscape-font-specification:monospace;stroke-width:1.19886"
           x="33.586071"
           y="113.31018">{pysimplesql}</tspan></text>
    </g>
    <rect
       style="fill:none;fill-opacity:1;stroke:#000000;stroke-width:0.489882;stroke-dasharray:none"
       id="rect4571"
       width="8.118968"
       height="8.118968"
       x="145.16406"
       y="51.875828"
       rx="0.11743433"
       ry="0.084136724" />
    <path
       style="fill:none;fill-opacity:1;stroke:#000000;stroke-width:0.489883;stroke-dasharray:none"
       d="m 119.20705,56.118462 h 8.06388"
       id="path4573" />
    <path
       style="fill:none;fill-opacity:1;stroke:#000000;stroke-width:0.489883;stroke-dasharray:none"
       d="m 170.92322,60.046157 8.38024,-8.380241"
       id="path4579" />
    <path
       style="fill:none;fill-opacity:1;stroke:#000000;stroke-width:0.489883;stroke-dasharray:none"
       d="m 179.30346,60.046157 -8.38024,-8.380241"
       id="path4581" />
  </g>
</svg>
